<svg xmlns="http://www.w3.org/2000/svg" viewBox="0 0 299.87 300.19"><defs><style>.cls-1,.cls-2{fill:#fff;}.cls-2,.cls-3{fill-rule:evenodd;}.cls-3{fill:#ee4423;}</style></defs><title>aptiv-desktop-logo.svg</title><g id="Layer_2" data-name="Layer 2"><g id="Layer_1-2" data-name="Layer 1"><rect width="299.87" height="300.19"/><g id="Intelligence_Desktop" data-name="Intelligence Desktop"><path class="cls-1" d="M70,243.68V268.4H67.64V243.68Z"/><path class="cls-1" d="M77.1,250.54v3.08h.07A5.16,5.16,0,0,1,79.39,251a6.57,6.57,0,0,1,3.52-1,8.9,8.9,0,0,1,3.14.48,5,5,0,0,1,2,1.37A5.12,5.12,0,0,1,89.17,254a12.17,12.17,0,0,1,.31,2.88V268.4H87.29V257.25a10.26,10.26,0,0,0-.21-2.13,4.55,4.55,0,0,0-.73-1.71,3.63,3.63,0,0,0-1.41-1.14,5.16,5.16,0,0,0-2.21-.42,5.67,5.67,0,0,0-2.35.47,5.18,5.18,0,0,0-1.74,1.28,6,6,0,0,0-1.11,1.94A7.66,7.66,0,0,0,77.1,258V268.4H74.91V250.54Z"/><path class="cls-1" d="M100.92,250.54v1.83H97.27v12.05a3.89,3.89,0,0,0,.3,1.68c.19.4.69.63,1.47.67a16.79,16.79,0,0,0,1.88-.1v1.83c-.32,0-.65,0-1,0s-.65,0-1,0a4.38,4.38,0,0,1-3.06-.84,4.3,4.3,0,0,1-.83-3.14V252.37H92v-1.83h3.13v-5.37h2.19v5.37Z"/><path class="cls-1" d="M105.88,262.5a6.67,6.67,0,0,0,1.06,2.27,6.25,6.25,0,0,0,1.84,1.66,5.29,5.29,0,0,0,2.68.65,5.36,5.36,0,0,0,3.76-1.24,6.6,6.6,0,0,0,1.88-3.32h2.19a8.73,8.73,0,0,1-2.56,4.7,7.64,7.64,0,0,1-5.27,1.66,8.35,8.35,0,0,1-3.67-.74,6.85,6.85,0,0,1-2.52-2,8.84,8.84,0,0,1-1.44-3,13.41,13.41,0,0,1-.47-3.62,12.61,12.61,0,0,1,.47-3.46,9.22,9.22,0,0,1,1.44-3,7.23,7.23,0,0,1,2.52-2.15,7.82,7.82,0,0,1,3.67-.81,7.09,7.09,0,0,1,6.18,3.13,9.62,9.62,0,0,1,1.37,3.22,14.27,14.27,0,0,1,.35,3.69H105.55A9.66,9.66,0,0,0,105.88,262.5Zm10.85-6.67a6.54,6.54,0,0,0-1.13-2,5.69,5.69,0,0,0-1.77-1.42,5.11,5.11,0,0,0-2.37-.54,5.17,5.17,0,0,0-2.4.54,5.69,5.69,0,0,0-1.77,1.42,7.06,7.06,0,0,0-1.17,2,9.76,9.76,0,0,0-.57,2.37h11.62A8,8,0,0,0,116.73,255.83Z"/><path class="cls-1" d="M124.71,243.68V268.4h-2.19V243.68Z"/><path class="cls-1" d="M131.32,243.68V268.4h-2.19V243.68Z"/><path class="cls-1" d="M137.93,243.68v3.5h-2.19v-3.5Zm0,6.86V268.4h-2.19V250.54Z"/><path class="cls-1" d="M157,270.51a6.9,6.9,0,0,1-1.37,2.7,6.06,6.06,0,0,1-2.45,1.7,10.31,10.31,0,0,1-3.71.59,11.09,11.09,0,0,1-2.64-.32,7.46,7.46,0,0,1-2.31-1,5.83,5.83,0,0,1-1.71-1.68,5,5,0,0,1-.78-2.44h2.19a3.88,3.88,0,0,0,.68,1.67,4,4,0,0,0,1.22,1.1,5.63,5.63,0,0,0,1.58.6,8.06,8.06,0,0,0,1.77.19,5.28,5.28,0,0,0,4.42-1.73,7.9,7.9,0,0,0,1.36-5v-2.43h-.07a6.42,6.42,0,0,1-2.24,2.67,6,6,0,0,1-3.47,1,8.6,8.6,0,0,1-3.68-.71,6.79,6.79,0,0,1-2.52-2,7.82,7.82,0,0,1-1.45-2.93,13.77,13.77,0,0,1-.45-3.58,11.12,11.12,0,0,1,.54-3.48,8.65,8.65,0,0,1,1.56-2.87,7.3,7.3,0,0,1,2.54-1.94,8.13,8.13,0,0,1,3.46-.71,6.15,6.15,0,0,1,1.9.28,6,6,0,0,1,1.62.77,7.59,7.59,0,0,1,1.3,1.16,5.37,5.37,0,0,1,.89,1.39h.07v-3.08h2.19V267A13.5,13.5,0,0,1,157,270.51Zm-5-4.76a5.64,5.64,0,0,0,1.81-1.59,7,7,0,0,0,1.09-2.27,9.29,9.29,0,0,0,.37-2.63,11.81,11.81,0,0,0-.31-2.63,7.72,7.72,0,0,0-1-2.39,5.58,5.58,0,0,0-1.79-1.73,5.08,5.08,0,0,0-2.67-.66,5.33,5.33,0,0,0-2.67.64,5.74,5.74,0,0,0-1.85,1.68,7.19,7.19,0,0,0-1.06,2.37,11.31,11.31,0,0,0-.33,2.72,10,10,0,0,0,.35,2.63,6.63,6.63,0,0,0,1.08,2.27,5.44,5.44,0,0,0,1.84,1.59,5.37,5.37,0,0,0,2.64.61A5,5,0,0,0,152,265.75Z"/><path class="cls-1" d="M163.45,262.5a6.67,6.67,0,0,0,1.06,2.27,6.13,6.13,0,0,0,1.84,1.66,5.27,5.27,0,0,0,2.68.65,5.32,5.32,0,0,0,3.75-1.24,6.46,6.46,0,0,0,1.88-3.32h2.19a8.66,8.66,0,0,1-2.55,4.7,7.64,7.64,0,0,1-5.27,1.66,8.32,8.32,0,0,1-3.67-.74,6.85,6.85,0,0,1-2.52-2,9.05,9.05,0,0,1-1.45-3,13.81,13.81,0,0,1-.47-3.62,13,13,0,0,1,.47-3.46,9.45,9.45,0,0,1,1.45-3,7.23,7.23,0,0,1,2.52-2.15A7.8,7.8,0,0,1,169,250a7.06,7.06,0,0,1,6.17,3.13,9.43,9.43,0,0,1,1.38,3.22,14.26,14.26,0,0,1,.34,3.69h-13.8A9.22,9.22,0,0,0,163.45,262.5Zm10.85-6.67a6.76,6.76,0,0,0-1.13-2,5.62,5.62,0,0,0-1.78-1.42,5,5,0,0,0-2.36-.54,5.12,5.12,0,0,0-2.4.54,5.62,5.62,0,0,0-1.78,1.42,7.27,7.27,0,0,0-1.16,2,9.76,9.76,0,0,0-.57,2.37h11.61A8,8,0,0,0,174.3,255.83Z"/><path class="cls-1" d="M182.21,250.54v3.08h.07a5.18,5.18,0,0,1,2.23-2.61,6.51,6.51,0,0,1,3.51-1,9,9,0,0,1,3.15.48,5.06,5.06,0,0,1,2,1.37,5.12,5.12,0,0,1,1.08,2.16,12.17,12.17,0,0,1,.31,2.88V268.4H192.4V257.25a10.26,10.26,0,0,0-.21-2.13,4.55,4.55,0,0,0-.73-1.71,3.49,3.49,0,0,0-1.41-1.14,5.11,5.11,0,0,0-2.2-.42,5.6,5.6,0,0,0-2.35.47,5,5,0,0,0-1.74,1.28,5.69,5.69,0,0,0-1.11,1.94,7.66,7.66,0,0,0-.44,2.44V268.4H180V250.54Z"/><path class="cls-1" d="M209.9,253a4.76,4.76,0,0,0-3.41-1.15,5.57,5.57,0,0,0-2.75.66,6,6,0,0,0-2,1.73,7.81,7.81,0,0,0-1.19,2.44,9.93,9.93,0,0,0,0,5.58,7.81,7.81,0,0,0,1.19,2.44,6,6,0,0,0,2,1.73,5.67,5.67,0,0,0,2.75.65,4.76,4.76,0,0,0,1.91-.38,5,5,0,0,0,1.6-1.05,5.55,5.55,0,0,0,1.15-1.61,6,6,0,0,0,.56-2h2.19a8.2,8.2,0,0,1-2.4,5.07,7.06,7.06,0,0,1-5,1.81,8.43,8.43,0,0,1-3.64-.74,7.76,7.76,0,0,1-2.66-2,8.75,8.75,0,0,1-1.63-3,12.18,12.18,0,0,1,0-7.3,8.79,8.79,0,0,1,1.63-3,8,8,0,0,1,2.66-2,8.29,8.29,0,0,1,3.64-.76,7.89,7.89,0,0,1,4.89,1.52,6.53,6.53,0,0,1,2.38,4.61h-2.19A6,6,0,0,0,209.9,253Z"/><path class="cls-1" d="M218.75,262.5a6.67,6.67,0,0,0,1.06,2.27,6.25,6.25,0,0,0,1.84,1.66,5.29,5.29,0,0,0,2.68.65,5.35,5.35,0,0,0,3.76-1.24,6.6,6.6,0,0,0,1.88-3.32h2.19a8.67,8.67,0,0,1-2.56,4.7,7.62,7.62,0,0,1-5.27,1.66,8.38,8.38,0,0,1-3.67-.74,6.85,6.85,0,0,1-2.52-2,8.84,8.84,0,0,1-1.44-3,13.41,13.41,0,0,1-.47-3.62,12.61,12.61,0,0,1,.47-3.46,9.22,9.22,0,0,1,1.44-3,7.23,7.23,0,0,1,2.52-2.15,7.85,7.85,0,0,1,3.67-.81,7.09,7.09,0,0,1,6.18,3.13,9.62,9.62,0,0,1,1.37,3.22,13.84,13.84,0,0,1,.35,3.69H218.42A9.66,9.66,0,0,0,218.75,262.5Zm10.85-6.67a6.35,6.35,0,0,0-1.13-2,5.58,5.58,0,0,0-1.77-1.42,5.11,5.11,0,0,0-2.37-.54,5.17,5.17,0,0,0-2.4.54,5.69,5.69,0,0,0-1.77,1.42,7.06,7.06,0,0,0-1.17,2,9.76,9.76,0,0,0-.57,2.37H230A8,8,0,0,0,229.6,255.83Z"/></g><rect class="cls-1" x="46.19" y="232.69" width="207.5" height="2.08"/><polygon class="cls-1" points="189.63 115.63 253.73 82.77 253.73 75.31 189.63 107.82 189.63 115.63"/><polygon class="cls-1" points="189.63 102.31 253.73 69.46 253.73 62 189.63 94.51 189.63 102.31"/><polygon class="cls-1" points="189.63 88.81 253.73 55.95 253.73 48.5 189.63 81.01 189.63 88.81"/><polygon class="cls-1" points="189.63 75.31 253.73 42.46 253.73 35 189.63 67.51 189.63 75.31"/><polygon class="cls-1" points="189.63 21.69 189.63 62 253.73 29.15 253.73 21.69 189.63 21.69"/><polygon class="cls-1" points="253.73 184.49 253.73 169.43 224.03 184.49 253.73 184.49"/><polygon class="cls-1" points="212.56 184.49 253.73 163.39 253.73 155.93 197.42 184.49 212.56 184.49"/><polygon class="cls-1" points="189.63 121.14 125.54 88.64 125.54 96.09 189.63 128.95 189.63 129.12 253.73 96.27 253.73 88.81 189.63 121.32 189.63 121.14"/><path class="cls-1" d="M189.63,134.45,125.54,102v6.76L86,88.63v7.46l39.58,20.29V122L86,102v6.88L46.15,88.63v7.46L86,116.5v5.64L46.15,102v7.45h0v6h0v7.46h0v6h0v7.45h0v5.86h0v7.45h0v27h0v7.57H60.92l.07,0H75.85l-5.42-2.74v-5.91l16.89,8.65h28.34l-5.42-2.74v-5.91l16.89,8.65h28.11l-5.19-2.63v-5.9l16.66,8.53h15.14l-31.8-16.12v-5.91l39.58,20.29v.18l64.1-32.86v-7.46l-64.1,32.51v-.17l-39.58-20.08V149l39.58,20.29v.17l64.1-32.85v-7.46l-64.1,32.51v-.18l-39.58-20.07v-5.92l39.58,20.29v.18l64.1-32.86v-7.45l-64.1,32.51V148l-39.58-20.07V122l39.58,20.29v.17l64.1-32.85v-7.46l-64.1,32.51Zm-64.09-4.76v5.83l-15.3-7.76v-5.91Zm-15.3,19.16,15.3,7.84v5.64l-15.3-7.76Zm15.3-5.66V149l-15.3-7.76v-5.91ZM70.43,121.85l15.53,8v5.82l-15.53-7.87Zm0,13.5,15.53,8v5.83l-15.53-7.88Zm0,13.5,15.53,8v5.64l-15.53-7.88Zm0,19.22v-5.91l15.53,8V176Zm39.81,0v-5.91l15.3,7.84v5.83Z"/></g><g id="Layer_2-2" data-name="Layer 2"><path class="cls-2" d="M142.9,193.53h25v6.7h-8.74v22.43h-7.57V200.23H142.9Z"/><path class="cls-2" d="M185.62,193.53h7.67v29.13h-7.67Z"/><path class="cls-2" d="M211,193.53h7.86c1.82,7.31,3.7,14.65,5.54,21.94h1.84c1.78-7.28,3.66-14.66,5.44-21.94h7.77c-.26,1-2.41,8.62-8.16,29.13H219.12Q215.06,208.09,211,193.53Z"/><path class="cls-2" d="M127.07,197.12c-2-3.11-6.47-3.57-11.65-3.59-3.56,0-7.39,0-11.36,0v29.13h7.57v-9.81c8.38.08,12.11.44,15.05-3.3A10.66,10.66,0,0,0,127.07,197.12Zm-8.06,9a43.42,43.42,0,0,1-7.38.2v-6.22c2.32,0,5.83-.17,7.38.19a2.88,2.88,0,0,1,2.14,2.82C121.15,204.68,120.42,205.92,119,206.15Z"/><path class="cls-2" d="M80.75,193.53H69.29c-6.18,20.53-7.91,26.35-8.74,29.13h7.38c.68-2.49,1.36-5.08,2-7.58h9.91c1.38,5.11,1.73,6.41,2,7.58h7.57C86.61,213,83.63,203.2,80.75,193.53Zm-9,15.63c.78-2.81,1.55-5.63,2.33-8.45H75.8c1.62,5.89,1.68,6.11,2.33,8.45Z"/><path class="cls-3" d="M259.33,202.66a5.44,5.44,0,1,1-5.44,5.43A5.43,5.43,0,0,1,259.33,202.66Z"/><path class="cls-3" d="M40.55,202.66a5.44,5.44,0,1,1-5.44,5.43A5.44,5.44,0,0,1,40.55,202.66Z"/></g></g></svg>