<svg xmlns="http://www.w3.org/2000/svg" viewBox="0 0 299.87 101.06"><defs><style>.cls-1,.cls-2{fill:#fff;}.cls-2,.cls-3{fill-rule:evenodd;}.cls-3{fill:#ee4423;}</style></defs><title>aptiv-mobile-logo.svg</title><g id="Layer_2" data-name="Layer 2"><g id="Layer_1-2" data-name="Layer 1"><rect width="299.87" height="101.06"/><polygon class="cls-1" points="76.78 56.71 107.67 40.88 107.67 37.28 76.78 52.95 76.78 56.71"/><polygon class="cls-1" points="76.78 50.29 107.67 34.46 107.67 30.87 76.78 46.53 76.78 50.29"/><polygon class="cls-1" points="76.78 43.79 107.67 27.95 107.67 24.36 76.78 40.03 76.78 43.79"/><polygon class="cls-1" points="76.78 37.28 107.67 21.45 107.67 17.86 76.78 33.52 76.78 37.28"/><polygon class="cls-1" points="76.78 11.45 76.78 30.87 107.67 15.04 107.67 11.45 76.78 11.45"/><polygon class="cls-1" points="107.67 89.89 107.67 82.63 93.35 89.89 107.67 89.89"/><polygon class="cls-1" points="87.83 89.89 107.67 79.72 107.67 76.13 80.53 89.89 87.83 89.89"/><polygon class="cls-1" points="76.78 59.37 45.9 43.7 45.9 47.29 76.78 63.13 76.78 63.21 107.67 47.38 107.67 43.79 76.78 59.45 76.78 59.37"/><path class="cls-1" d="M76.78,65.78,45.9,50.12v3.25L26.83,43.7v3.59L45.9,57.07v2.72L26.83,50.12v3.31L7.64,43.7v3.59l19.19,9.84v2.71L7.64,50.12v3.59h0v2.91h0v3.59h0v2.92h0v3.59h0v2.82h0v3.59h0v13h0v3.65H22l-2.6-1.32V85.63l8.13,4.17H41.14l-2.61-1.32V85.63l8.13,4.17H60.21l-2.5-1.26V85.69l8,4.11H73L57.71,82V79.19L76.78,89v.09l30.88-15.83v-3.6L76.78,85.29V85.2L57.71,75.53V72.77l19.07,9.78v.08L107.66,66.8V63.21L76.78,78.87v-.08L57.71,69.12V66.27L76.78,76v.09L107.66,60.3V56.7L76.78,72.37v-.09L57.71,62.61V59.76l19.07,9.78v.08l30.88-15.83V50.2L76.78,65.86ZM45.9,63.48v2.81l-7.37-3.74V59.71Zm-7.37,9.24,7.37,3.77v2.72l-7.37-3.74ZM45.9,70V72.8l-7.37-3.74V66.21ZM19.35,59.71l7.48,3.83v2.81l-7.48-3.8Zm0,6.5L26.83,70v2.81l-7.48-3.79Zm0,6.51,7.48,3.83v2.72l-7.48-3.8Zm0,9.26V79.13L26.83,83v2.81Zm19.18,0V79.13l7.37,3.78v2.81Z"/><g id="Intelligence_Mobile" data-name="Intelligence Mobile"><path class="cls-1" d="M143.52,60.48v19H141.7v-19Z"/><path class="cls-1" d="M149,65.74V68.1h0a4,4,0,0,1,1.71-2,5,5,0,0,1,2.7-.76,7,7,0,0,1,2.41.37,3.84,3.84,0,0,1,1.56,1.05,3.94,3.94,0,0,1,.83,1.66,9.35,9.35,0,0,1,.24,2.21v8.81h-1.68V70.89a7.64,7.64,0,0,0-.16-1.63,3.66,3.66,0,0,0-.56-1.32,2.74,2.74,0,0,0-1.08-.87,4.06,4.06,0,0,0-1.7-.32,4.32,4.32,0,0,0-1.8.36,3.84,3.84,0,0,0-1.33,1,4.55,4.55,0,0,0-.86,1.49,6.21,6.21,0,0,0-.33,1.87v8h-1.68V65.74Z"/><path class="cls-1" d="M167.24,65.74v1.41h-2.8v9.24a3,3,0,0,0,.22,1.29c.15.31.53.48,1.14.52a13.9,13.9,0,0,0,1.44-.08v1.4q-.37,0-.75,0l-.74,0a3.35,3.35,0,0,1-2.35-.65,3.26,3.26,0,0,1-.64-2.41V67.15h-2.41V65.74h2.41V61.62h1.68v4.12Z"/><path class="cls-1" d="M171,74.92a5.16,5.16,0,0,0,.82,1.74,4.66,4.66,0,0,0,1.41,1.27,4,4,0,0,0,2.06.51,4.11,4.11,0,0,0,2.88-1,5.09,5.09,0,0,0,1.44-2.55h1.68a6.63,6.63,0,0,1-2,3.61,5.86,5.86,0,0,1-4,1.28,6.45,6.45,0,0,1-2.82-.57,5.36,5.36,0,0,1-1.94-1.57,7.06,7.06,0,0,1-1.1-2.31,10.49,10.49,0,0,1-.36-2.78,9.85,9.85,0,0,1,.36-2.65,7.26,7.26,0,0,1,1.1-2.33A5.54,5.54,0,0,1,172.51,66a5.93,5.93,0,0,1,2.82-.63,5.5,5.5,0,0,1,4.73,2.4,7.39,7.39,0,0,1,1.06,2.48,10.67,10.67,0,0,1,.26,2.82H170.79A7.37,7.37,0,0,0,171,74.92Zm8.33-5.12a5,5,0,0,0-.87-1.55,4.39,4.39,0,0,0-1.36-1.09,4,4,0,0,0-1.81-.41,4.06,4.06,0,0,0-1.85.41,4.51,4.51,0,0,0-1.36,1.09,5.35,5.35,0,0,0-.89,1.57,7.67,7.67,0,0,0-.44,1.82h8.91A6.3,6.3,0,0,0,179.37,69.8Z"/><path class="cls-1" d="M185.49,60.48v19h-1.68v-19Z"/><path class="cls-1" d="M190.56,60.48v19h-1.68v-19Z"/><path class="cls-1" d="M195.64,60.48v2.68H194V60.48Zm0,5.26v13.7H194V65.74Z"/><path class="cls-1" d="M210.3,81.06a5.31,5.31,0,0,1-1.05,2.08,4.63,4.63,0,0,1-1.89,1.3,7.87,7.87,0,0,1-2.84.45,8.61,8.61,0,0,1-2-.24,5.85,5.85,0,0,1-1.77-.74,4.47,4.47,0,0,1-1.31-1.29,3.77,3.77,0,0,1-.6-1.87h1.68A2.91,2.91,0,0,0,201,82a3,3,0,0,0,.94.84,4,4,0,0,0,1.21.46,6.23,6.23,0,0,0,1.36.15,4,4,0,0,0,3.39-1.33,6,6,0,0,0,1-3.82V76.47h0a4.89,4.89,0,0,1-1.72,2,4.58,4.58,0,0,1-2.66.78,6.77,6.77,0,0,1-2.83-.55,5.22,5.22,0,0,1-1.93-1.5A6.12,6.12,0,0,1,198.65,75a10.62,10.62,0,0,1-.35-2.75,8.39,8.39,0,0,1,.42-2.67,6.47,6.47,0,0,1,1.2-2.21,5.44,5.44,0,0,1,2-1.48,6.07,6.07,0,0,1,2.65-.55,5,5,0,0,1,1.46.21,5.27,5.27,0,0,1,1.24.6,6.06,6.06,0,0,1,1,.89,4.23,4.23,0,0,1,.68,1.06h0V65.74h1.68V78.33A10.42,10.42,0,0,1,210.3,81.06Zm-3.86-3.65a4.29,4.29,0,0,0,1.39-1.22,5.21,5.21,0,0,0,.84-1.74,7.19,7.19,0,0,0,.28-2,8.78,8.78,0,0,0-.24-2,6,6,0,0,0-.77-1.83,4.28,4.28,0,0,0-1.38-1.33,4,4,0,0,0-2-.5,4,4,0,0,0-2.05.49,4.5,4.5,0,0,0-1.42,1.29,5.47,5.47,0,0,0-.81,1.82,8.53,8.53,0,0,0-.26,2.08,7.57,7.57,0,0,0,.27,2,5.2,5.2,0,0,0,.83,1.74,4.1,4.1,0,0,0,3.44,1.69A3.85,3.85,0,0,0,206.44,77.41Z"/><path class="cls-1" d="M215.21,74.92a5.34,5.34,0,0,0,.81,1.74,4.82,4.82,0,0,0,1.42,1.27,3.92,3.92,0,0,0,2.05.51,4.12,4.12,0,0,0,2.89-1,5.09,5.09,0,0,0,1.44-2.55h1.68a6.7,6.7,0,0,1-2,3.61,5.89,5.89,0,0,1-4,1.28,6.43,6.43,0,0,1-2.81-.57,5.36,5.36,0,0,1-1.94-1.57,6.86,6.86,0,0,1-1.1-2.31,10.49,10.49,0,0,1-.36-2.78,9.85,9.85,0,0,1,.36-2.65,7.06,7.06,0,0,1,1.1-2.33A5.54,5.54,0,0,1,216.68,66a5.92,5.92,0,0,1,2.81-.63,5.51,5.51,0,0,1,4.74,2.4,7.39,7.39,0,0,1,1.06,2.48,10.67,10.67,0,0,1,.26,2.82H215A7.37,7.37,0,0,0,215.21,74.92Zm8.33-5.12a5.22,5.22,0,0,0-.87-1.55,4.39,4.39,0,0,0-1.36-1.09,4,4,0,0,0-1.82-.41,4.05,4.05,0,0,0-1.84.41,4.39,4.39,0,0,0-1.36,1.09,5.35,5.35,0,0,0-.89,1.57,7.22,7.22,0,0,0-.44,1.82h8.91A6.3,6.3,0,0,0,223.54,69.8Z"/><path class="cls-1" d="M229.61,65.74V68.1h0a4,4,0,0,1,1.71-2,5,5,0,0,1,2.69-.76,7,7,0,0,1,2.42.37A3.84,3.84,0,0,1,238,66.76a3.94,3.94,0,0,1,.83,1.66,9.35,9.35,0,0,1,.24,2.21v8.81h-1.68V70.89a7.64,7.64,0,0,0-.16-1.63,3.49,3.49,0,0,0-.56-1.32,2.74,2.74,0,0,0-1.08-.87,4.06,4.06,0,0,0-1.7-.32,4.29,4.29,0,0,0-1.8.36,3.84,3.84,0,0,0-1.33,1,4.55,4.55,0,0,0-.86,1.49,6.21,6.21,0,0,0-.33,1.87v8h-1.68V65.74Z"/><path class="cls-1" d="M250.85,67.63a3.63,3.63,0,0,0-2.61-.88,4.33,4.33,0,0,0-2.11.5,4.61,4.61,0,0,0-1.51,1.33,6.25,6.25,0,0,0-.91,1.87,7.78,7.78,0,0,0,0,4.28,6.14,6.14,0,0,0,.91,1.87,4.61,4.61,0,0,0,1.51,1.33,4.23,4.23,0,0,0,2.11.51,3.93,3.93,0,0,0,2.69-1.11,4.11,4.11,0,0,0,.88-1.23,4.51,4.51,0,0,0,.43-1.57h1.68a6.27,6.27,0,0,1-1.84,3.89,5.42,5.42,0,0,1-3.84,1.4,6.5,6.5,0,0,1-2.79-.57,6,6,0,0,1-2-1.56,6.66,6.66,0,0,1-1.26-2.3,9.54,9.54,0,0,1,0-5.6,6.76,6.76,0,0,1,1.26-2.3,6.1,6.1,0,0,1,2-1.56,6.36,6.36,0,0,1,2.79-.59A6,6,0,0,1,252,66.51,5,5,0,0,1,253.81,70h-1.68A4.53,4.53,0,0,0,250.85,67.63Z"/><path class="cls-1" d="M257.64,74.92a5.16,5.16,0,0,0,.82,1.74,4.66,4.66,0,0,0,1.41,1.27,4,4,0,0,0,2.06.51,4.09,4.09,0,0,0,2.88-1,5.09,5.09,0,0,0,1.44-2.55h1.68a6.63,6.63,0,0,1-2,3.61,5.86,5.86,0,0,1-4,1.28,6.45,6.45,0,0,1-2.82-.57,5.25,5.25,0,0,1-1.93-1.57,6.88,6.88,0,0,1-1.11-2.31,10.49,10.49,0,0,1-.36-2.78,9.85,9.85,0,0,1,.36-2.65,7.07,7.07,0,0,1,1.11-2.33A5.42,5.42,0,0,1,259.11,66a5.93,5.93,0,0,1,2.82-.63,5.47,5.47,0,0,1,4.73,2.4,7.39,7.39,0,0,1,1.06,2.48A10.67,10.67,0,0,1,268,73H257.39A7.84,7.84,0,0,0,257.64,74.92ZM266,69.8a4.81,4.81,0,0,0-.87-1.55,4.28,4.28,0,0,0-1.36-1.09,4.27,4.27,0,0,0-3.65,0,4.28,4.28,0,0,0-1.36,1.09,5.15,5.15,0,0,0-.9,1.57,7.67,7.67,0,0,0-.44,1.82h8.92A6.31,6.31,0,0,0,266,69.8Z"/></g><rect class="cls-1" x="117.29" y="49.63" width="173.87" height="2.08"/></g><g id="Layer_2-2" data-name="Layer 2"><path class="cls-2" d="M199.34,19.21h18.88v5h-6.59v16.9h-5.7V24.25h-6.59Z"/><path class="cls-2" d="M231.53,19.21h5.78V41.15h-5.78Z"/><path class="cls-2" d="M250.63,19.21h5.92c1.37,5.51,2.78,11,4.17,16.53h1.39c1.34-5.49,2.76-11,4.1-16.53h5.85c-.2.74-1.81,6.49-6.14,21.94h-9.15Q253.7,30.19,250.63,19.21Z"/><path class="cls-2" d="M187.42,21.91c-1.54-2.34-4.87-2.68-8.78-2.7-2.68,0-5.56,0-8.56,0V41.15h5.71V33.76c6.31.06,9.12.33,11.34-2.48A8,8,0,0,0,187.42,21.91Zm-6.07,6.81a32,32,0,0,1-5.56.14V24.18a36,36,0,0,1,5.56.15A2.17,2.17,0,0,1,183,26.45,2.07,2.07,0,0,1,181.35,28.72Z"/><path class="cls-2" d="M152.52,19.21h-8.63c-4.65,15.46-6,19.85-6.58,21.94h5.56c.51-1.87,1-3.83,1.53-5.7h7.47c1,3.84,1.3,4.83,1.53,5.7h5.71C156.94,33.86,154.69,26.5,152.52,19.21ZM145.72,31l1.76-6.36h1.31c1.23,4.44,1.27,4.6,1.76,6.36Z"/><path class="cls-3" d="M287.06,26.08a4.1,4.1,0,1,1-4.1,4.1A4.1,4.1,0,0,1,287.06,26.08Z"/><path class="cls-3" d="M122.24,26.08a4.1,4.1,0,1,1-4.1,4.1A4.1,4.1,0,0,1,122.24,26.08Z"/></g></g></svg>