<svg xmlns="http://www.w3.org/2000/svg" viewBox="0 0 299.87 300.19"><defs><style>.cls-1,.cls-2{fill:#fff;}.cls-2,.cls-3{fill-rule:evenodd;}.cls-3{fill:#ee4423;}</style></defs><title>aptiv-desktop-logo-ch</title><g id="Layer_2" data-name="Layer 2"><g id="Layer_1-2" data-name="Layer 1"><rect width="299.87" height="300.19"/><rect class="cls-1" x="46.19" y="232.69" width="207.5" height="2.08"/><polygon class="cls-1" points="189.63 115.63 253.73 82.77 253.73 75.31 189.63 107.82 189.63 115.63"/><polygon class="cls-1" points="189.63 102.31 253.73 69.46 253.73 62 189.63 94.51 189.63 102.31"/><polygon class="cls-1" points="189.63 88.81 253.73 55.95 253.73 48.5 189.63 81.01 189.63 88.81"/><polygon class="cls-1" points="189.63 75.31 253.73 42.46 253.73 35 189.63 67.51 189.63 75.31"/><polygon class="cls-1" points="189.63 21.69 189.63 62 253.73 29.15 253.73 21.69 189.63 21.69"/><polygon class="cls-1" points="253.73 184.49 253.73 169.43 224.03 184.49 253.73 184.49"/><polygon class="cls-1" points="212.56 184.49 253.73 163.39 253.73 155.93 197.42 184.49 212.56 184.49"/><polygon class="cls-1" points="189.63 121.14 125.54 88.64 125.54 96.09 189.63 128.95 189.63 129.12 253.73 96.27 253.73 88.81 189.63 121.32 189.63 121.14"/><path class="cls-1" d="M189.63,134.45,125.54,102v6.76L86,88.63v7.46l39.58,20.29V122L86,102v6.88L46.15,88.63v7.46L86,116.5v5.64L46.15,102v7.45h0v6h0v7.46h0v6h0v7.45h0v5.86h0v7.45h0v27h0v7.57H60.92l.07,0H75.85l-5.42-2.74v-5.91l16.89,8.65h28.34l-5.42-2.74v-5.91l16.89,8.65h28.11l-5.19-2.63v-5.9l16.66,8.53h15.14l-31.8-16.12v-5.91l39.58,20.29v.18l64.1-32.86v-7.46l-64.1,32.51v-.17l-39.58-20.08V149l39.58,20.29v.17l64.1-32.85v-7.46l-64.1,32.51v-.18l-39.58-20.07v-5.92l39.58,20.29v.18l64.1-32.86v-7.45l-64.1,32.51V148l-39.58-20.07V122l39.58,20.29v.17l64.1-32.85v-7.46l-64.1,32.51Zm-64.09-4.76v5.83l-15.3-7.76v-5.91Zm-15.3,19.16,15.3,7.84v5.64l-15.3-7.76Zm15.3-5.66V149l-15.3-7.76v-5.91ZM70.43,121.85l15.53,8v5.82l-15.53-7.87Zm0,13.5,15.53,8v5.83l-15.53-7.88Zm0,13.5,15.53,8v5.64l-15.53-7.88Zm0,19.22v-5.91l15.53,8V176Zm39.81,0v-5.91l15.3,7.84v5.83Z"/><path class="cls-1" d="M127.22,250.73V255h8.46v2.14h-8.46v3.46h7.1v9.77c0,2.25-1,2.42-5.18,2.42a6.48,6.48,0,0,0-.63-2c.77,0,1.43,0,2,0,1.5,0,1.67,0,1.67-.48v-7.62h-4.94v12.71H125V262.74h-4.74v10h-2.15V260.59H125v-3.46h-8.77V255H125v-4.26h-4.67a24.68,24.68,0,0,1-1.53,4.19,11.3,11.3,0,0,0-1.91-.94,40.21,40.21,0,0,0,2.61-9.76l2.78.69c-.07.24-.28.38-.73.38-.17,1-.38,2.15-.66,3.26H125v-5.23l2.92.21c0,.24-.21.38-.7.45v4.57h7.13v2.18Zm13.08-3c0,.24-.21.41-.66.45V266.9h-2.22V247.54Zm4.46-3.74,2.92.17c0,.24-.21.42-.66.48v27.81c0,3-1.57,3.11-7,3a15.28,15.28,0,0,0-.8-2.28c1.28,0,2.47.07,3.37.07,1.84,0,2.16,0,2.16-.83Z"/><path class="cls-1" d="M158.81,257.17v11.32c2.71,4.12,7.69,4.12,13.95,4.12,3.76,0,8.18-.11,10.89-.28a8.49,8.49,0,0,0-.77,2.36c-2.4.1-6.22.17-9.67.17-7.17,0-11.93,0-15.44-4.29-1.71,1.52-3.55,3.08-5.05,4.25a.46.46,0,0,1-.31.56l-1.36-2.56a60.33,60.33,0,0,0,5.5-4.23v-9.21h-5.12v-2.21Zm-5.19-13a25.83,25.83,0,0,1,6.23,5.47L158,251.21a25,25,0,0,0-6.12-5.64Zm29.47,10.88v2H160.44v-2h10.3v-5h-5.08a21.47,21.47,0,0,1-2.36,4.12,17.15,17.15,0,0,0-2-1c1.74-2.15,3.23-5.82,4.14-9.35l2.78.76c-.07.24-.31.35-.73.35-.28,1-.62,2-1,3.08h4.21v-4.64l3,.17c0,.24-.24.42-.7.49v4h8.49V250h-8.49v5Zm-2.92,15.33h-2.3v-1.17H166.18v1.28H164V259.69h16.21Zm-14-3.25h11.69v-5.51H166.18Z"/></g><g id="Layer_2-2" data-name="Layer 2"><path class="cls-2" d="M142.9,193.53h25v6.7h-8.74v22.43h-7.57V200.23H142.9Z"/><path class="cls-2" d="M185.62,193.53h7.67v29.13h-7.67Z"/><path class="cls-2" d="M211,193.53h7.86c1.82,7.31,3.7,14.65,5.54,21.94h1.84c1.78-7.28,3.66-14.66,5.44-21.94h7.77c-.26,1-2.41,8.62-8.16,29.13H219.12Q215.06,208.09,211,193.53Z"/><path class="cls-2" d="M127.07,197.12c-2-3.11-6.47-3.57-11.65-3.59-3.56,0-7.39,0-11.36,0v29.13h7.57v-9.81c8.38.08,12.11.44,15.05-3.3A10.66,10.66,0,0,0,127.07,197.12Zm-8.06,9a43.42,43.42,0,0,1-7.38.2v-6.22c2.32,0,5.83-.17,7.38.19a2.88,2.88,0,0,1,2.14,2.82C121.15,204.68,120.42,205.92,119,206.15Z"/><path class="cls-2" d="M80.75,193.53H69.29c-6.18,20.53-7.91,26.35-8.74,29.13h7.38c.68-2.49,1.36-5.08,2-7.58h9.91c1.38,5.11,1.73,6.41,2,7.58h7.57C86.61,213,83.63,203.2,80.75,193.53Zm-9,15.63c.78-2.81,1.55-5.63,2.33-8.45H75.8c1.62,5.89,1.68,6.11,2.33,8.45Z"/><path class="cls-3" d="M259.33,202.66a5.44,5.44,0,1,1-5.44,5.43A5.43,5.43,0,0,1,259.33,202.66Z"/><path class="cls-3" d="M40.55,202.66a5.44,5.44,0,1,1-5.44,5.43A5.44,5.44,0,0,1,40.55,202.66Z"/></g></g></svg>