<svg xmlns="http://www.w3.org/2000/svg" viewBox="0 0 299.87 101.06"><defs><style>.cls-1,.cls-2{fill:#fff;}.cls-2,.cls-3{fill-rule:evenodd;}.cls-3{fill:#ee4423;}</style></defs><title>aptiv-mobile-logo-es.svg_1</title><g id="Layer_2" data-name="Layer 2"><g id="Layer_1-2" data-name="Layer 1"><rect width="299.87" height="101.06"/><polygon class="cls-1" points="76.78 56.71 107.67 40.88 107.67 37.28 76.78 52.95 76.78 56.71"/><polygon class="cls-1" points="76.78 50.29 107.67 34.46 107.67 30.87 76.78 46.53 76.78 50.29"/><polygon class="cls-1" points="76.78 43.79 107.67 27.95 107.67 24.36 76.78 40.03 76.78 43.79"/><polygon class="cls-1" points="76.78 37.28 107.67 21.45 107.67 17.86 76.78 33.52 76.78 37.28"/><polygon class="cls-1" points="76.78 11.45 76.78 30.87 107.67 15.04 107.67 11.45 76.78 11.45"/><polygon class="cls-1" points="107.67 89.89 107.67 82.63 93.35 89.89 107.67 89.89"/><polygon class="cls-1" points="87.83 89.89 107.67 79.72 107.67 76.13 80.53 89.89 87.83 89.89"/><polygon class="cls-1" points="76.78 59.37 45.9 43.7 45.9 47.29 76.78 63.13 76.78 63.21 107.67 47.38 107.67 43.79 76.78 59.45 76.78 59.37"/><path class="cls-1" d="M76.78,65.78,45.9,50.12v3.25L26.83,43.7v3.59L45.9,57.07v2.72L26.83,50.12v3.31L7.64,43.7v3.59l19.19,9.84v2.71L7.64,50.12v3.59h0v2.91h0v3.59h0v2.92h0v3.59h0v2.82h0v3.59h0v13h0v3.65H22l-2.6-1.32V85.63l8.13,4.17H41.14l-2.61-1.32V85.63l8.13,4.17H60.21l-2.5-1.26V85.69l8,4.11H73L57.71,82V79.19L76.78,89v.09l30.88-15.83v-3.6L76.78,85.29V85.2L57.71,75.53V72.77l19.07,9.78v.08L107.66,66.8V63.21L76.78,78.87v-.08L57.71,69.12V66.27L76.78,76v.09L107.66,60.3V56.7L76.78,72.37v-.09L57.71,62.61V59.76l19.07,9.78v.08l30.88-15.83V50.2L76.78,65.86ZM45.9,63.48v2.81l-7.37-3.74V59.71Zm-7.37,9.24,7.37,3.77v2.72l-7.37-3.74ZM45.9,70V72.8l-7.37-3.74V66.21ZM19.35,59.71l7.48,3.83v2.81l-7.48-3.8Zm0,6.5L26.83,70v2.81l-7.48-3.79Zm0,6.51,7.48,3.83v2.72l-7.48-3.8Zm0,9.26V79.13L26.83,83v2.81Zm19.18,0V79.13l7.37,3.78v2.81Z"/><rect class="cls-1" x="117.29" y="49.63" width="173.87" height="2.08"/><path class="cls-1" d="M143.57,60.48v19h-1.82v-19Z"/><path class="cls-1" d="M149,65.74V68.1h.06a4,4,0,0,1,1.71-2,5,5,0,0,1,2.69-.76,7,7,0,0,1,2.42.37,3.84,3.84,0,0,1,1.56,1.05,3.93,3.93,0,0,1,.82,1.66,9.35,9.35,0,0,1,.24,2.21v8.81h-1.68V70.89a7.64,7.64,0,0,0-.16-1.63,3.34,3.34,0,0,0-.56-1.32,2.67,2.67,0,0,0-1.08-.87,4,4,0,0,0-1.69-.32,4.25,4.25,0,0,0-1.8.36,3.79,3.79,0,0,0-1.34,1,4.53,4.53,0,0,0-.85,1.49,5.91,5.91,0,0,0-.34,1.87v8h-1.68V65.74Z"/><path class="cls-1" d="M167.3,65.74v1.41h-2.81v9.24a3,3,0,0,0,.23,1.29c.15.31.53.48,1.13.52a14.25,14.25,0,0,0,1.45-.08v1.4q-.37,0-.75,0t-.75,0a3.37,3.37,0,0,1-2.35-.65,3.3,3.3,0,0,1-.64-2.41V67.15h-2.4V65.74h2.4V61.62h1.68v4.12Z"/><path class="cls-1" d="M171.1,74.92a5.34,5.34,0,0,0,.81,1.74,4.91,4.91,0,0,0,1.41,1.27,4,4,0,0,0,2.06.51,4.07,4.07,0,0,0,2.88-1,5,5,0,0,0,1.44-2.55h1.69a6.64,6.64,0,0,1-2,3.61,5.86,5.86,0,0,1-4,1.28,6.51,6.51,0,0,1-2.82-.57,5.33,5.33,0,0,1-1.93-1.57,6.88,6.88,0,0,1-1.11-2.31,10.49,10.49,0,0,1-.36-2.78,9.85,9.85,0,0,1,.36-2.65,7.07,7.07,0,0,1,1.11-2.33A5.51,5.51,0,0,1,172.56,66a6,6,0,0,1,2.82-.63,5.59,5.59,0,0,1,2.83.67,5.68,5.68,0,0,1,1.91,1.73,7.18,7.18,0,0,1,1,2.48,10.27,10.27,0,0,1,.27,2.82h-10.6A7.4,7.4,0,0,0,171.1,74.92Zm8.32-5.12a5,5,0,0,0-.86-1.55,4.51,4.51,0,0,0-1.36-1.09,4.29,4.29,0,0,0-3.66,0,4.28,4.28,0,0,0-1.36,1.09,5.6,5.6,0,0,0-.9,1.57,7.67,7.67,0,0,0-.44,1.82h8.92A6,6,0,0,0,179.42,69.8Z"/><path class="cls-1" d="M185.55,60.48v19h-1.68v-19Z"/><path class="cls-1" d="M190.62,60.48v2.68h-1.68V60.48Zm0,5.26v13.7h-1.68V65.74Z"/><path class="cls-1" d="M205.28,81.06a5.31,5.31,0,0,1-1.05,2.08,4.66,4.66,0,0,1-1.88,1.3,7.91,7.91,0,0,1-2.84.45,8.54,8.54,0,0,1-2-.24,6,6,0,0,1-1.78-.74,4.44,4.44,0,0,1-1.3-1.29,3.77,3.77,0,0,1-.6-1.87h1.68A2.79,2.79,0,0,0,196,82a3,3,0,0,0,.93.84,4.06,4.06,0,0,0,1.22.46,6.1,6.1,0,0,0,1.36.15,4,4,0,0,0,3.39-1.33,6.1,6.1,0,0,0,1-3.82V76.47h-.06a4.82,4.82,0,0,1-1.72,2,4.57,4.57,0,0,1-2.65.78,6.7,6.7,0,0,1-2.83-.55,5.26,5.26,0,0,1-1.94-1.5,6.1,6.1,0,0,1-1.1-2.24,10.21,10.21,0,0,1-.35-2.75,8.67,8.67,0,0,1,.41-2.67,6.83,6.83,0,0,1,1.2-2.21,5.61,5.61,0,0,1,1.95-1.48,6.11,6.11,0,0,1,2.66-.55,4.89,4.89,0,0,1,1.45.21,5.09,5.09,0,0,1,1.24.6,5.68,5.68,0,0,1,1,.89,4,4,0,0,1,.68,1.06h.06V65.74h1.68V78.33A10,10,0,0,1,205.28,81.06Zm-3.85-3.65a4.25,4.25,0,0,0,1.38-1.22,5.23,5.23,0,0,0,.85-1.74,7.58,7.58,0,0,0,.28-2,8.78,8.78,0,0,0-.24-2,5.75,5.75,0,0,0-.78-1.83,4.15,4.15,0,0,0-1.37-1.33,4,4,0,0,0-2-.5,4.05,4.05,0,0,0-2.06.49A4.36,4.36,0,0,0,196,68.53a5.29,5.29,0,0,0-.82,1.82,8.52,8.52,0,0,0-.25,2.08,7.57,7.57,0,0,0,.27,2,5,5,0,0,0,.82,1.74,4.29,4.29,0,0,0,1.42,1.22,4.17,4.17,0,0,0,2,.47A3.85,3.85,0,0,0,201.43,77.41Z"/><path class="cls-1" d="M210.19,74.92a5.36,5.36,0,0,0,.82,1.74,4.66,4.66,0,0,0,1.41,1.27,4,4,0,0,0,2.06.51,4.07,4.07,0,0,0,2.88-1,5,5,0,0,0,1.44-2.55h1.68a6.63,6.63,0,0,1-2,3.61,5.86,5.86,0,0,1-4,1.28,6.45,6.45,0,0,1-2.82-.57,5.33,5.33,0,0,1-1.93-1.57,6.88,6.88,0,0,1-1.11-2.31,10.49,10.49,0,0,1-.36-2.78,9.85,9.85,0,0,1,.36-2.65,7.07,7.07,0,0,1,1.11-2.33A5.51,5.51,0,0,1,211.66,66a5.93,5.93,0,0,1,2.82-.63,5.62,5.62,0,0,1,2.83.67,5.68,5.68,0,0,1,1.91,1.73,7.37,7.37,0,0,1,1.05,2.48,11.11,11.11,0,0,1,.27,2.82h-10.6A7.84,7.84,0,0,0,210.19,74.92Zm8.33-5.12a4.81,4.81,0,0,0-.87-1.55,4.28,4.28,0,0,0-1.36-1.09,4.27,4.27,0,0,0-3.65,0,4.28,4.28,0,0,0-1.36,1.09,5.15,5.15,0,0,0-.9,1.57,7.67,7.67,0,0,0-.44,1.82h8.92A6,6,0,0,0,218.52,69.8Z"/><path class="cls-1" d="M224.59,65.74V68.1h.06a4,4,0,0,1,1.7-2,5,5,0,0,1,2.7-.76,7.08,7.08,0,0,1,2.42.37,3.63,3.63,0,0,1,2.38,2.71,9.35,9.35,0,0,1,.24,2.21v8.81h-1.68V70.89a7.64,7.64,0,0,0-.16-1.63,3.34,3.34,0,0,0-.56-1.32,2.74,2.74,0,0,0-1.08-.87,4,4,0,0,0-1.69-.32,4.25,4.25,0,0,0-1.8.36,3.88,3.88,0,0,0-1.34,1,4.53,4.53,0,0,0-.85,1.49,5.91,5.91,0,0,0-.34,1.87v8h-1.68V65.74Z"/><path class="cls-1" d="M245.84,67.63a3.68,3.68,0,0,0-2.62-.88,4.36,4.36,0,0,0-2.11.5,4.71,4.71,0,0,0-1.51,1.33,6,6,0,0,0-.9,1.87,7.54,7.54,0,0,0,0,4.28,5.9,5.9,0,0,0,.9,1.87,4.71,4.71,0,0,0,1.51,1.33,4.25,4.25,0,0,0,2.11.51,3.65,3.65,0,0,0,1.47-.3,3.87,3.87,0,0,0,1.23-.81,4.49,4.49,0,0,0,.88-1.23,4.74,4.74,0,0,0,.43-1.57h1.67a6.27,6.27,0,0,1-1.84,3.89,5.39,5.39,0,0,1-3.84,1.4,6.5,6.5,0,0,1-2.79-.57,6,6,0,0,1-2-1.56,6.64,6.64,0,0,1-1.25-2.3,9.33,9.33,0,0,1,0-5.6,6.74,6.74,0,0,1,1.25-2.3,6.1,6.1,0,0,1,2-1.56,6.36,6.36,0,0,1,2.79-.59A6,6,0,0,1,247,66.51,5,5,0,0,1,248.8,70h-1.68A4.6,4.6,0,0,0,245.84,67.63Z"/><path class="cls-1" d="M253.1,60.48v2.68h-1.69V60.48Zm0,5.26v13.7h-1.69V65.74Z"/><path class="cls-1" d="M256.81,67.86A3.88,3.88,0,0,1,258,66.43a4.81,4.81,0,0,1,1.72-.82,8.21,8.21,0,0,1,2.19-.27,10.17,10.17,0,0,1,1.81.17,4.61,4.61,0,0,1,1.63.65,3.53,3.53,0,0,1,1.17,1.35,4.69,4.69,0,0,1,.46,2.24V77a.88.88,0,0,0,1,1,1.33,1.33,0,0,0,.54-.11v1.41l-.52.08a4.89,4.89,0,0,1-.58,0,2.44,2.44,0,0,1-1-.17,1.42,1.42,0,0,1-.61-.49,1.76,1.76,0,0,1-.27-.76,5.74,5.74,0,0,1-.07-1h-.06a10.92,10.92,0,0,1-.92,1.19,4.5,4.5,0,0,1-1,.86,4.67,4.67,0,0,1-1.31.53,7.28,7.28,0,0,1-1.74.19,6.93,6.93,0,0,1-1.8-.23,4,4,0,0,1-1.47-.72,3.36,3.36,0,0,1-1-1.24,4.19,4.19,0,0,1-.36-1.8,3.51,3.51,0,0,1,.64-2.24,4.09,4.09,0,0,1,1.7-1.24,9.56,9.56,0,0,1,2.37-.59l2.68-.34a9.3,9.3,0,0,0,.94-.13,1.59,1.59,0,0,0,.66-.28,1.27,1.27,0,0,0,.42-.54,2.32,2.32,0,0,0,.14-.91,3,3,0,0,0-.28-1.39,2.14,2.14,0,0,0-.77-.86,3,3,0,0,0-1.15-.44,7.69,7.69,0,0,0-1.4-.12,4.19,4.19,0,0,0-2.61.76A2.92,2.92,0,0,0,258,69.94H256.3A5.44,5.44,0,0,1,256.81,67.86Zm8.4,4.09a1,1,0,0,1-.61.43,6.91,6.91,0,0,1-.8.19c-.72.12-1.45.23-2.21.33a11.84,11.84,0,0,0-2.06.44,4,4,0,0,0-1.54.83,2,2,0,0,0-.6,1.56,2.44,2.44,0,0,0,.26,1.13,2.5,2.5,0,0,0,.68.84,2.86,2.86,0,0,0,1,.55,3.8,3.8,0,0,0,1.15.19,5.63,5.63,0,0,0,1.84-.3,4.36,4.36,0,0,0,1.54-.85,4.21,4.21,0,0,0,1-1.35,4,4,0,0,0,.38-1.81V72Z"/></g><g id="Layer_2-2" data-name="Layer 2"><path class="cls-2" d="M199.34,19.21h18.88v5h-6.59v16.9h-5.7V24.25h-6.59Z"/><path class="cls-2" d="M231.53,19.21h5.78V41.15h-5.78Z"/><path class="cls-2" d="M250.63,19.21h5.92c1.37,5.51,2.78,11,4.17,16.53h1.39c1.34-5.49,2.76-11,4.1-16.53h5.85c-.2.74-1.81,6.49-6.14,21.94h-9.15Q253.7,30.19,250.63,19.21Z"/><path class="cls-2" d="M187.42,21.91c-1.54-2.34-4.87-2.68-8.78-2.7-2.68,0-5.56,0-8.56,0V41.15h5.71V33.76c6.31.06,9.12.33,11.34-2.48A8,8,0,0,0,187.42,21.91Zm-6.07,6.81a32,32,0,0,1-5.56.14V24.18a36,36,0,0,1,5.56.15A2.17,2.17,0,0,1,183,26.45,2.07,2.07,0,0,1,181.35,28.72Z"/><path class="cls-2" d="M152.52,19.21h-8.63c-4.65,15.46-6,19.85-6.58,21.94h5.56c.51-1.87,1-3.83,1.53-5.7h7.47c1,3.84,1.3,4.83,1.53,5.7h5.71C156.94,33.86,154.69,26.5,152.52,19.21ZM145.72,31l1.76-6.36h1.31c1.23,4.44,1.27,4.6,1.76,6.36Z"/><path class="cls-3" d="M287.06,26.08a4.1,4.1,0,1,1-4.1,4.1A4.1,4.1,0,0,1,287.06,26.08Z"/><path class="cls-3" d="M122.24,26.08a4.1,4.1,0,1,1-4.1,4.1A4.1,4.1,0,0,1,122.24,26.08Z"/></g></g></svg>