<svg xmlns="http://www.w3.org/2000/svg" viewBox="0 0 299.87 300.19"><defs><style>.cls-1,.cls-2{fill:#fff;}.cls-2,.cls-3{fill-rule:evenodd;}.cls-3{fill:#ee4423;}</style></defs><title>aptiv-desktop-logo-hu.svg</title><g id="Layer_2" data-name="Layer 2"><g id="Layer_1-2" data-name="Layer 1"><rect width="299.87" height="300.19"/><rect class="cls-1" x="46.19" y="232.69" width="207.5" height="2.08"/><polygon class="cls-1" points="189.63 115.63 253.73 82.77 253.73 75.31 189.63 107.82 189.63 115.63"/><polygon class="cls-1" points="189.63 102.31 253.73 69.46 253.73 62 189.63 94.51 189.63 102.31"/><polygon class="cls-1" points="189.63 88.81 253.73 55.95 253.73 48.5 189.63 81.01 189.63 88.81"/><polygon class="cls-1" points="189.63 75.31 253.73 42.46 253.73 35 189.63 67.51 189.63 75.31"/><polygon class="cls-1" points="189.63 21.69 189.63 62 253.73 29.15 253.73 21.69 189.63 21.69"/><polygon class="cls-1" points="253.73 184.49 253.73 169.43 224.03 184.49 253.73 184.49"/><polygon class="cls-1" points="212.56 184.49 253.73 163.39 253.73 155.93 197.42 184.49 212.56 184.49"/><polygon class="cls-1" points="189.63 121.14 125.54 88.64 125.54 96.09 189.63 128.95 189.63 129.12 253.73 96.27 253.73 88.81 189.63 121.32 189.63 121.14"/><path class="cls-1" d="M189.63,134.45,125.54,102v6.76L86,88.63v7.46l39.58,20.29V122L86,102v6.88L46.15,88.63v7.46L86,116.5v5.64L46.15,102v7.45h0v6h0v7.46h0v6h0v7.45h0v5.86h0v7.45h0v27h0v7.57H60.92l.07,0H75.85l-5.42-2.74v-5.91l16.89,8.65h28.34l-5.42-2.74v-5.91l16.89,8.65h28.11l-5.19-2.63v-5.9l16.66,8.53h15.14l-31.8-16.12v-5.91l39.58,20.29v.18l64.1-32.86v-7.46l-64.1,32.51v-.17l-39.58-20.08V149l39.58,20.29v.17l64.1-32.85v-7.46l-64.1,32.51v-.18l-39.58-20.07v-5.92l39.58,20.29v.18l64.1-32.86v-7.45l-64.1,32.51V148l-39.58-20.07V122l39.58,20.29v.17l64.1-32.85v-7.46l-64.1,32.51Zm-64.09-4.76v5.83l-15.3-7.76v-5.91Zm-15.3,19.16,15.3,7.84v5.64l-15.3-7.76Zm15.3-5.66V149l-15.3-7.76v-5.91ZM70.43,121.85l15.53,8v5.82l-15.53-7.87Zm0,13.5,15.53,8v5.83l-15.53-7.88Zm0,13.5,15.53,8v5.64l-15.53-7.88Zm0,19.22v-5.91l15.53,8V176Zm39.81,0v-5.91l15.3,7.84v5.83Z"/><path class="cls-1" d="M66.42,243.42v24.72H64.06V243.42Z"/><path class="cls-1" d="M73.52,250.28v3.08h.07a5.27,5.27,0,0,1,2.22-2.62,6.56,6.56,0,0,1,3.52-1,9,9,0,0,1,3.15.48,5,5,0,0,1,2,1.37,5.12,5.12,0,0,1,1.08,2.16,12.08,12.08,0,0,1,.31,2.87v11.5H83.71V257a10.26,10.26,0,0,0-.21-2.13,4.41,4.41,0,0,0-.73-1.71A3.46,3.46,0,0,0,81.36,252a5.12,5.12,0,0,0-2.21-.42,5.59,5.59,0,0,0-2.34.47,5,5,0,0,0-1.74,1.28A5.88,5.88,0,0,0,74,255.28a8,8,0,0,0-.43,2.44v10.42H71.33V250.28Z"/><path class="cls-1" d="M97.34,250.28v1.83H93.69v12.05a3.89,3.89,0,0,0,.3,1.68c.19.4.69.62,1.48.67a16.74,16.74,0,0,0,1.87-.1v1.83c-.32,0-.64,0-1,0s-.65,0-1,0a4.32,4.32,0,0,1-3.06-.85,4.26,4.26,0,0,1-.84-3.13V252.11H88.37v-1.83H91.5v-5.37h2.19v5.37Z"/><path class="cls-1" d="M102.3,262.24a6.62,6.62,0,0,0,1.06,2.26,5.91,5.91,0,0,0,1.85,1.66,5.13,5.13,0,0,0,2.67.66,5.35,5.35,0,0,0,3.76-1.24,6.64,6.64,0,0,0,1.88-3.33h2.19a8.7,8.7,0,0,1-2.56,4.71,7.62,7.62,0,0,1-5.27,1.66,8.52,8.52,0,0,1-3.67-.74,6.85,6.85,0,0,1-2.52-2,8.81,8.81,0,0,1-1.44-3,13.68,13.68,0,0,1-.47-3.61,13.14,13.14,0,0,1,.47-3.47,9.08,9.08,0,0,1,1.44-3,7.23,7.23,0,0,1,2.52-2.15,7.85,7.85,0,0,1,3.67-.81,7.09,7.09,0,0,1,6.18,3.13,9.34,9.34,0,0,1,1.37,3.22,13.81,13.81,0,0,1,.35,3.68H102A9.73,9.73,0,0,0,102.3,262.24Zm10.85-6.67a6.24,6.24,0,0,0-1.13-2,5.58,5.58,0,0,0-1.77-1.42,5.11,5.11,0,0,0-2.37-.54,5.17,5.17,0,0,0-2.4.54,5.69,5.69,0,0,0-1.77,1.42,6.93,6.93,0,0,0-1.17,2A9.76,9.76,0,0,0,102,258h11.62A7.66,7.66,0,0,0,113.15,255.57Z"/><path class="cls-1" d="M121.14,243.42v24.72H119V243.42Z"/><path class="cls-1" d="M127.75,243.42v24.72h-2.2V243.42Z"/><path class="cls-1" d="M134.35,243.42v3.5h-2.19v-3.5Zm0,6.86v17.86h-2.19V250.28Z"/><path class="cls-1" d="M153.47,270.25a6.91,6.91,0,0,1-1.38,2.7,5.89,5.89,0,0,1-2.45,1.69,10.07,10.07,0,0,1-3.7.59,11.11,11.11,0,0,1-2.65-.31,7.48,7.48,0,0,1-2.31-1,5.79,5.79,0,0,1-1.7-1.68,4.9,4.9,0,0,1-.79-2.44h2.19a3.81,3.81,0,0,0,1.9,2.77,5.36,5.36,0,0,0,1.58.61,8.09,8.09,0,0,0,1.78.19,5.26,5.26,0,0,0,4.41-1.73,7.93,7.93,0,0,0,1.36-5v-2.42h-.07a6.42,6.42,0,0,1-2.24,2.67,6,6,0,0,1-3.46,1,8.77,8.77,0,0,1-3.69-.71,6.82,6.82,0,0,1-2.52-2,7.93,7.93,0,0,1-1.45-2.92,13.77,13.77,0,0,1-.45-3.58,11,11,0,0,1,.54-3.48,8.54,8.54,0,0,1,1.57-2.88,7.3,7.3,0,0,1,2.54-1.93,7.92,7.92,0,0,1,3.46-.71,6.07,6.07,0,0,1,3.51,1.05,6.87,6.87,0,0,1,1.3,1.16,5.12,5.12,0,0,1,.89,1.39h.07v-3.08h2.19v16.4A13.54,13.54,0,0,1,153.47,270.25Zm-5-4.76a5.76,5.76,0,0,0,1.81-1.59,7.15,7.15,0,0,0,1.1-2.27,9.65,9.65,0,0,0,.36-2.63,11.19,11.19,0,0,0-.31-2.63,7.62,7.62,0,0,0-1-2.39,5.48,5.48,0,0,0-1.79-1.73,5.07,5.07,0,0,0-2.66-.66,5.24,5.24,0,0,0-2.68.64,5.7,5.7,0,0,0-1.84,1.68,6.92,6.92,0,0,0-1.07,2.37A11.31,11.31,0,0,0,140,259a10,10,0,0,0,.35,2.63,6.71,6.71,0,0,0,1.08,2.27,5.66,5.66,0,0,0,1.84,1.59,5.54,5.54,0,0,0,2.65.6A5.05,5.05,0,0,0,148.44,265.49Z"/><path class="cls-1" d="M159.87,262.24a6.62,6.62,0,0,0,1.06,2.26,6,6,0,0,0,1.84,1.66,5.17,5.17,0,0,0,2.68.66,5.36,5.36,0,0,0,3.76-1.24,6.55,6.55,0,0,0,1.87-3.33h2.2a8.76,8.76,0,0,1-2.56,4.71,7.64,7.64,0,0,1-5.27,1.66,8.49,8.49,0,0,1-3.67-.74,6.85,6.85,0,0,1-2.52-2,8.81,8.81,0,0,1-1.44-3,13.28,13.28,0,0,1-.47-3.61,12.74,12.74,0,0,1,.47-3.47,9.08,9.08,0,0,1,1.44-3,7.23,7.23,0,0,1,2.52-2.15,7.82,7.82,0,0,1,3.67-.81,7.35,7.35,0,0,1,3.69.86,7.22,7.22,0,0,1,2.48,2.27,9.35,9.35,0,0,1,1.38,3.22,14.23,14.23,0,0,1,.35,3.68H159.54A9.73,9.73,0,0,0,159.87,262.24Zm10.85-6.67a6.43,6.43,0,0,0-1.13-2,5.69,5.69,0,0,0-1.77-1.42,5.11,5.11,0,0,0-2.37-.54,5.17,5.17,0,0,0-2.4.54,5.47,5.47,0,0,0-1.77,1.42,6.93,6.93,0,0,0-1.17,2,9.76,9.76,0,0,0-.57,2.37h11.61A7.65,7.65,0,0,0,170.72,255.57Z"/><path class="cls-1" d="M178.63,250.28v3.08h.07a5.24,5.24,0,0,1,2.23-2.62,6.55,6.55,0,0,1,3.51-1,9,9,0,0,1,3.15.48,4.9,4.9,0,0,1,2,1.37,5.12,5.12,0,0,1,1.08,2.16,12.06,12.06,0,0,1,.32,2.87v11.5h-2.19V257a11,11,0,0,0-.21-2.13,4.57,4.57,0,0,0-.73-1.71,3.46,3.46,0,0,0-1.41-1.14,5.16,5.16,0,0,0-2.21-.42,5.63,5.63,0,0,0-2.35.47,5.18,5.18,0,0,0-1.74,1.28,5.86,5.86,0,0,0-1.11,1.94,8,8,0,0,0-.44,2.44v10.42h-2.19V250.28Z"/><path class="cls-1" d="M206.32,252.73a4.8,4.8,0,0,0-3.41-1.14,5.57,5.57,0,0,0-2.75.66,5.94,5.94,0,0,0-2,1.73,7.68,7.68,0,0,0-1.18,2.44,9.9,9.9,0,0,0,0,5.57,7.68,7.68,0,0,0,1.18,2.44,5.83,5.83,0,0,0,2,1.73,5.57,5.57,0,0,0,2.75.66,5.05,5.05,0,0,0,3.51-1.43,5.55,5.55,0,0,0,1.15-1.61,6,6,0,0,0,.56-2h2.19a8.2,8.2,0,0,1-2.4,5.07,7,7,0,0,1-5,1.82,8.5,8.5,0,0,1-3.63-.74,7.58,7.58,0,0,1-2.66-2,8.77,8.77,0,0,1-1.64-3,12.21,12.21,0,0,1,0-7.31,8.77,8.77,0,0,1,1.64-3,7.85,7.85,0,0,1,2.66-2,8.21,8.21,0,0,1,3.63-.76,7.81,7.81,0,0,1,4.89,1.52,6.47,6.47,0,0,1,2.38,4.6H208A6,6,0,0,0,206.32,252.73Z"/><path class="cls-1" d="M215.78,243.42v3.5h-2.19v-3.5Zm0,6.86v17.86h-2.19V250.28Z"/><path class="cls-1" d="M220.62,253a5,5,0,0,1,1.51-1.86,6.31,6.31,0,0,1,2.24-1.08,11.05,11.05,0,0,1,2.86-.34,12.64,12.64,0,0,1,2.36.22,5.6,5.6,0,0,1,2.12.85,4.52,4.52,0,0,1,1.53,1.75,6.19,6.19,0,0,1,.59,2.92V265a1.15,1.15,0,0,0,1.29,1.31,1.59,1.59,0,0,0,.7-.14V268c-.26.05-.49.08-.68.1a5.28,5.28,0,0,1-.75,0,3.33,3.33,0,0,1-1.34-.23,1.72,1.72,0,0,1-.78-.64,2.35,2.35,0,0,1-.37-1,9.66,9.66,0,0,1-.08-1.26h-.07a15.89,15.89,0,0,1-1.2,1.54,6.06,6.06,0,0,1-1.36,1.13,6.31,6.31,0,0,1-1.7.69,9.49,9.49,0,0,1-2.28.24,9.28,9.28,0,0,1-2.35-.29,5.26,5.26,0,0,1-1.91-.94,4.38,4.38,0,0,1-1.29-1.62,5.46,5.46,0,0,1-.47-2.34,4.6,4.6,0,0,1,.84-2.93,5.26,5.26,0,0,1,2.2-1.61,13.15,13.15,0,0,1,3.1-.77l3.5-.44a11,11,0,0,0,1.21-.17,2.16,2.16,0,0,0,.87-.36,1.77,1.77,0,0,0,.54-.71,3,3,0,0,0,.19-1.18,4,4,0,0,0-.36-1.82,2.88,2.88,0,0,0-1-1.12,4,4,0,0,0-1.5-.57,9.56,9.56,0,0,0-1.82-.16,5.54,5.54,0,0,0-3.41,1,3.84,3.84,0,0,0-1.39,3.16H220A7.34,7.34,0,0,1,220.62,253Zm10.95,5.34a1.27,1.27,0,0,1-.8.55,7.88,7.88,0,0,1-1,.24c-.93.16-1.88.31-2.87.43a15.62,15.62,0,0,0-2.7.58,5.2,5.2,0,0,0-2,1.09,2.58,2.58,0,0,0-.78,2,3.15,3.15,0,0,0,.33,1.47,3.55,3.55,0,0,0,.89,1.11,3.85,3.85,0,0,0,1.29.71,4.7,4.7,0,0,0,1.49.24,7.63,7.63,0,0,0,2.4-.38,5.74,5.74,0,0,0,2-1.11,5.21,5.21,0,0,0,1.86-4.12v-2.83Z"/></g><g id="Layer_2-2" data-name="Layer 2"><path class="cls-2" d="M142.9,193.53h25v6.7h-8.74v22.43h-7.57V200.23H142.9Z"/><path class="cls-2" d="M185.62,193.53h7.67v29.13h-7.67Z"/><path class="cls-2" d="M211,193.53h7.86c1.82,7.31,3.7,14.65,5.54,21.94h1.84c1.78-7.28,3.66-14.66,5.44-21.94h7.77c-.26,1-2.41,8.62-8.16,29.13H219.12Q215.06,208.09,211,193.53Z"/><path class="cls-2" d="M127.07,197.12c-2-3.11-6.47-3.57-11.65-3.59-3.56,0-7.39,0-11.36,0v29.13h7.57v-9.81c8.38.08,12.11.44,15.05-3.3A10.66,10.66,0,0,0,127.07,197.12Zm-8.06,9a43.42,43.42,0,0,1-7.38.2v-6.22c2.32,0,5.83-.17,7.38.19a2.88,2.88,0,0,1,2.14,2.82C121.15,204.68,120.42,205.92,119,206.15Z"/><path class="cls-2" d="M80.75,193.53H69.29c-6.18,20.53-7.91,26.35-8.74,29.13h7.38c.68-2.49,1.36-5.08,2-7.58h9.91c1.38,5.11,1.73,6.41,2,7.58h7.57C86.61,213,83.63,203.2,80.75,193.53Zm-9,15.63c.78-2.81,1.55-5.63,2.33-8.45H75.8c1.62,5.89,1.68,6.11,2.33,8.45Z"/><path class="cls-3" d="M259.33,202.66a5.44,5.44,0,1,1-5.44,5.43A5.43,5.43,0,0,1,259.33,202.66Z"/><path class="cls-3" d="M40.55,202.66a5.44,5.44,0,1,1-5.44,5.43A5.44,5.44,0,0,1,40.55,202.66Z"/></g></g></svg>