<svg xmlns="http://www.w3.org/2000/svg" viewBox="0 0 299.87 101.06"><defs><style>.cls-1,.cls-2{fill:#fff;}.cls-2,.cls-3{fill-rule:evenodd;}.cls-3{fill:#ee4423;}</style></defs><title>aptiv-mobile-logo-de.svg</title><g id="Layer_2" data-name="Layer 2"><g id="Layer_1-2" data-name="Layer 1"><rect width="299.87" height="101.06"/><polygon class="cls-1" points="76.78 56.71 107.67 40.88 107.67 37.28 76.78 52.95 76.78 56.71"/><polygon class="cls-1" points="76.78 50.29 107.67 34.46 107.67 30.87 76.78 46.53 76.78 50.29"/><polygon class="cls-1" points="76.78 43.79 107.67 27.95 107.67 24.36 76.78 40.03 76.78 43.79"/><polygon class="cls-1" points="76.78 37.28 107.67 21.45 107.67 17.86 76.78 33.52 76.78 37.28"/><polygon class="cls-1" points="76.78 11.45 76.78 30.87 107.67 15.04 107.67 11.45 76.78 11.45"/><polygon class="cls-1" points="107.67 89.89 107.67 82.63 93.35 89.89 107.67 89.89"/><polygon class="cls-1" points="87.83 89.89 107.67 79.72 107.67 76.13 80.53 89.89 87.83 89.89"/><polygon class="cls-1" points="76.78 59.37 45.9 43.7 45.9 47.29 76.78 63.13 76.78 63.21 107.67 47.38 107.67 43.79 76.78 59.45 76.78 59.37"/><path class="cls-1" d="M76.78,65.78,45.9,50.12v3.25L26.83,43.7v3.59L45.9,57.07v2.72L26.83,50.12v3.31L7.64,43.7v3.59l19.19,9.84v2.71L7.64,50.12v3.59h0v2.91h0v3.59h0v2.92h0v3.59h0v2.82h0v3.59h0v13h0v3.65H22l-2.6-1.32V85.63l8.13,4.17H41.14l-2.61-1.32V85.63l8.13,4.17H60.21l-2.5-1.26V85.69l8,4.11H73L57.71,82V79.19L76.78,89v.09l30.88-15.83v-3.6L76.78,85.29V85.2L57.71,75.53V72.77l19.07,9.78v.08L107.66,66.8V63.21L76.78,78.87v-.08L57.71,69.12V66.27L76.78,76v.09L107.66,60.3V56.7L76.78,72.37v-.09L57.71,62.61V59.76l19.07,9.78v.08l30.88-15.83V50.2L76.78,65.86ZM45.9,63.48v2.81l-7.37-3.74V59.71Zm-7.37,9.24,7.37,3.77v2.72l-7.37-3.74ZM45.9,70V72.8l-7.37-3.74V66.21ZM19.35,59.71l7.48,3.83v2.81l-7.48-3.8Zm0,6.5L26.83,70v2.81l-7.48-3.79Zm0,6.51,7.48,3.83v2.72l-7.48-3.8Zm0,9.26V79.13L26.83,83v2.81Zm19.18,0V79.13l7.37,3.78v2.81Z"/><rect class="cls-1" x="117.29" y="49.63" width="173.87" height="2.08"/><path class="cls-1" d="M150.93,58.48v19h-1.82v-19Z"/><path class="cls-1" d="M156.37,63.74V66.1h0a4,4,0,0,1,1.71-2,5,5,0,0,1,2.7-.76,7,7,0,0,1,2.41.37,3.84,3.84,0,0,1,1.56,1.05,3.94,3.94,0,0,1,.83,1.66,9.35,9.35,0,0,1,.24,2.21v8.81h-1.68V68.89a7.64,7.64,0,0,0-.16-1.63,3.49,3.49,0,0,0-.56-1.32,2.74,2.74,0,0,0-1.08-.87,4.06,4.06,0,0,0-1.7-.32,4.32,4.32,0,0,0-1.8.36,3.84,3.84,0,0,0-1.33,1,4.55,4.55,0,0,0-.86,1.49,6.21,6.21,0,0,0-.33,1.87v8h-1.68V63.74Z"/><path class="cls-1" d="M174.65,63.74v1.41h-2.8v9.24a2.86,2.86,0,0,0,.23,1.29c.15.31.52.48,1.13.52a13.9,13.9,0,0,0,1.44-.08v1.4q-.37,0-.75,0c-.25,0-.49,0-.74,0a3.35,3.35,0,0,1-2.35-.65,3.26,3.26,0,0,1-.64-2.41V65.15h-2.4V63.74h2.4V59.62h1.68v4.12Z"/><path class="cls-1" d="M178.45,72.92a5.16,5.16,0,0,0,.82,1.74,4.66,4.66,0,0,0,1.41,1.27,4,4,0,0,0,2.06.51,4.09,4.09,0,0,0,2.88-1,5.09,5.09,0,0,0,1.44-2.55h1.68a6.63,6.63,0,0,1-2,3.61,5.86,5.86,0,0,1-4,1.28,6.45,6.45,0,0,1-2.82-.57A5.25,5.25,0,0,1,178,75.68a6.88,6.88,0,0,1-1.11-2.31,10.49,10.49,0,0,1-.36-2.78,9.85,9.85,0,0,1,.36-2.65A7.07,7.07,0,0,1,178,65.61,5.42,5.42,0,0,1,179.92,64a5.93,5.93,0,0,1,2.82-.63,5.5,5.5,0,0,1,4.73,2.4,7.39,7.39,0,0,1,1.06,2.48,10.67,10.67,0,0,1,.26,2.82H178.2A7.37,7.37,0,0,0,178.45,72.92Zm8.33-5.12a5,5,0,0,0-.87-1.55,4.28,4.28,0,0,0-1.36-1.09,4.27,4.27,0,0,0-3.65,0,4.43,4.43,0,0,0-1.37,1.09,5.35,5.35,0,0,0-.89,1.57,7.67,7.67,0,0,0-.44,1.82h8.91A6,6,0,0,0,186.78,67.8Z"/><path class="cls-1" d="M192.9,58.48v19h-1.68v-19Z"/><path class="cls-1" d="M198,58.48v19h-1.69v-19Z"/><path class="cls-1" d="M203.05,58.48v2.68h-1.69V58.48Zm0,5.26v13.7h-1.69V63.74Z"/><path class="cls-1" d="M217.71,79.06a5.31,5.31,0,0,1-1.05,2.08,4.63,4.63,0,0,1-1.89,1.3,7.87,7.87,0,0,1-2.84.45,8.61,8.61,0,0,1-2-.24,6,6,0,0,1-1.77-.74,4.47,4.47,0,0,1-1.31-1.29,3.87,3.87,0,0,1-.6-1.87h1.68a2.92,2.92,0,0,0,1.46,2.12,4,4,0,0,0,1.21.46,6.23,6.23,0,0,0,1.36.15,4,4,0,0,0,3.39-1.33,6,6,0,0,0,1-3.82V74.47h-.05a4.89,4.89,0,0,1-1.72,2,4.58,4.58,0,0,1-2.66.78,6.77,6.77,0,0,1-2.83-.55,5.22,5.22,0,0,1-1.93-1.5A6.12,6.12,0,0,1,206.06,73a10.62,10.62,0,0,1-.35-2.75,8.39,8.39,0,0,1,.42-2.67,6.47,6.47,0,0,1,1.2-2.21,5.44,5.44,0,0,1,1.95-1.48,6.07,6.07,0,0,1,2.65-.55,5,5,0,0,1,1.46.21,5.27,5.27,0,0,1,1.24.6,5.68,5.68,0,0,1,1,.89,4.23,4.23,0,0,1,.68,1.06h.05V63.74H218V76.33A10.42,10.42,0,0,1,217.71,79.06Zm-3.86-3.65a4.19,4.19,0,0,0,1.39-1.22,5,5,0,0,0,.84-1.74,7.19,7.19,0,0,0,.28-2,8.78,8.78,0,0,0-.24-2,6,6,0,0,0-.77-1.83A4.28,4.28,0,0,0,214,65.25a4,4,0,0,0-2-.5,4,4,0,0,0-2.05.49,4.5,4.5,0,0,0-1.42,1.29,5.47,5.47,0,0,0-.81,1.82,8.52,8.52,0,0,0-.25,2.08,7.56,7.56,0,0,0,.26,2,5.2,5.2,0,0,0,.83,1.74,4.1,4.1,0,0,0,3.44,1.69A3.85,3.85,0,0,0,213.85,75.41Z"/><path class="cls-1" d="M222.62,72.92a5.16,5.16,0,0,0,.82,1.74,4.66,4.66,0,0,0,1.41,1.27,3.92,3.92,0,0,0,2.05.51,4.12,4.12,0,0,0,2.89-1,5.09,5.09,0,0,0,1.44-2.55h1.68a6.7,6.7,0,0,1-2,3.61,5.87,5.87,0,0,1-4,1.28,6.43,6.43,0,0,1-2.81-.57,5.36,5.36,0,0,1-1.94-1.57,7.06,7.06,0,0,1-1.1-2.31,10.49,10.49,0,0,1-.36-2.78,9.85,9.85,0,0,1,.36-2.65,7.26,7.26,0,0,1,1.1-2.33A5.54,5.54,0,0,1,224.09,64a5.92,5.92,0,0,1,2.81-.63,5.51,5.51,0,0,1,4.74,2.4,7.39,7.39,0,0,1,1.06,2.48A10.67,10.67,0,0,1,233,71H222.37A7.37,7.37,0,0,0,222.62,72.92ZM231,67.8a5.22,5.22,0,0,0-.87-1.55,4.39,4.39,0,0,0-1.36-1.09,4,4,0,0,0-1.82-.41,4.05,4.05,0,0,0-1.84.41,4.51,4.51,0,0,0-1.36,1.09,5.35,5.35,0,0,0-.89,1.57,7.67,7.67,0,0,0-.44,1.82h8.91A6.3,6.3,0,0,0,231,67.8Z"/><path class="cls-1" d="M237,63.74V66.1h0a4,4,0,0,1,1.71-2,5,5,0,0,1,2.7-.76,7,7,0,0,1,2.41.37,3.84,3.84,0,0,1,1.56,1.05,3.94,3.94,0,0,1,.83,1.66,9.35,9.35,0,0,1,.24,2.21v8.81h-1.68V68.89a7.64,7.64,0,0,0-.16-1.63,3.49,3.49,0,0,0-.56-1.32,2.74,2.74,0,0,0-1.08-.87,4.06,4.06,0,0,0-1.7-.32,4.32,4.32,0,0,0-1.8.36,3.84,3.84,0,0,0-1.33,1,4.55,4.55,0,0,0-.86,1.49,6.21,6.21,0,0,0-.33,1.87v8h-1.68V63.74Z"/><path class="cls-1" d="M260.13,76v1.4h-11.5V76.09l9-10.94h-8.38V63.74h10.52v1.19L250.66,76Z"/></g><g id="Layer_2-2" data-name="Layer 2"><path class="cls-2" d="M199.34,19.21h18.88v5h-6.59v16.9h-5.7V24.25h-6.59Z"/><path class="cls-2" d="M231.53,19.21h5.78V41.15h-5.78Z"/><path class="cls-2" d="M250.63,19.21h5.92c1.37,5.51,2.78,11,4.17,16.53h1.39c1.34-5.49,2.76-11,4.1-16.53h5.85c-.2.74-1.81,6.49-6.14,21.94h-9.15Q253.7,30.19,250.63,19.21Z"/><path class="cls-2" d="M187.42,21.91c-1.54-2.34-4.87-2.68-8.78-2.7-2.68,0-5.56,0-8.56,0V41.15h5.71V33.76c6.31.06,9.12.33,11.34-2.48A8,8,0,0,0,187.42,21.91Zm-6.07,6.81a32,32,0,0,1-5.56.14V24.18a36,36,0,0,1,5.56.15A2.17,2.17,0,0,1,183,26.45,2.07,2.07,0,0,1,181.35,28.72Z"/><path class="cls-2" d="M152.52,19.21h-8.63c-4.65,15.46-6,19.85-6.58,21.94h5.56c.51-1.87,1-3.83,1.53-5.7h7.47c1,3.84,1.3,4.83,1.53,5.7h5.71C156.94,33.86,154.69,26.5,152.52,19.21ZM145.72,31l1.76-6.36h1.31c1.23,4.44,1.27,4.6,1.76,6.36Z"/><path class="cls-3" d="M287.06,26.08a4.1,4.1,0,1,1-4.1,4.1A4.1,4.1,0,0,1,287.06,26.08Z"/><path class="cls-3" d="M122.24,26.08a4.1,4.1,0,1,1-4.1,4.1A4.1,4.1,0,0,1,122.24,26.08Z"/></g></g></svg>