<svg xmlns="http://www.w3.org/2000/svg" viewBox="0 0 299.87 101.06"><defs><style>.cls-1,.cls-2{fill:#fff;}.cls-2,.cls-3{fill-rule:evenodd;}.cls-3{fill:#ee4423;}</style></defs><title>aptiv-mobile-logo-ch</title><g id="Layer_2" data-name="Layer 2"><g id="Layer_1-2" data-name="Layer 1"><rect width="299.87" height="101.06"/><polygon class="cls-1" points="76.78 56.71 107.67 40.88 107.67 37.28 76.78 52.95 76.78 56.71"/><polygon class="cls-1" points="76.78 50.29 107.67 34.46 107.67 30.87 76.78 46.53 76.78 50.29"/><polygon class="cls-1" points="76.78 43.79 107.67 27.95 107.67 24.36 76.78 40.03 76.78 43.79"/><polygon class="cls-1" points="76.78 37.28 107.67 21.45 107.67 17.86 76.78 33.52 76.78 37.28"/><polygon class="cls-1" points="76.78 11.45 76.78 30.87 107.67 15.04 107.67 11.45 76.78 11.45"/><polygon class="cls-1" points="107.67 89.89 107.67 82.63 93.35 89.89 107.67 89.89"/><polygon class="cls-1" points="87.83 89.89 107.67 79.72 107.67 76.13 80.53 89.89 87.83 89.89"/><polygon class="cls-1" points="76.78 59.37 45.9 43.7 45.9 47.29 76.78 63.13 76.78 63.21 107.67 47.38 107.67 43.79 76.78 59.45 76.78 59.37"/><path class="cls-1" d="M76.78,65.78,45.9,50.12v3.25L26.83,43.7v3.59L45.9,57.07v2.72L26.83,50.12v3.31L7.64,43.7v3.59l19.19,9.84v2.71L7.64,50.12v3.59h0v2.91h0v3.59h0v2.92h0v3.59h0v2.82h0v3.59h0v13h0v3.65H22l-2.6-1.32V85.63l8.13,4.17H41.14l-2.61-1.32V85.63l8.13,4.17H60.21l-2.5-1.26V85.69l8,4.11H73L57.71,82V79.19L76.78,89v.09l30.88-15.83v-3.6L76.78,85.29V85.2L57.71,75.53V72.77l19.07,9.78v.08L107.66,66.8V63.21L76.78,78.87v-.08L57.71,69.12V66.27L76.78,76v.09L107.66,60.3V56.7L76.78,72.37v-.09L57.71,62.61V59.76l19.07,9.78v.08l30.88-15.83V50.2L76.78,65.86ZM45.9,63.48v2.81l-7.37-3.74V59.71Zm-7.37,9.24,7.37,3.77v2.72l-7.37-3.74ZM45.9,70V72.8l-7.37-3.74V66.21ZM19.35,59.71l7.48,3.83v2.81l-7.48-3.8Zm0,6.5L26.83,70v2.81l-7.48-3.79Zm0,6.51,7.48,3.83v2.72l-7.48-3.8Zm0,9.26V79.13L26.83,83v2.81Zm19.18,0V79.13l7.37,3.78v2.81Z"/><rect class="cls-1" x="117.29" y="49.63" width="173.87" height="2.08"/><path class="cls-1" d="M182.59,66.58v3.27h6.49V71.5h-6.49v2.66H188v7.49c0,1.72-.75,1.86-4,1.86a4.81,4.81,0,0,0-.48-1.52c.59,0,1.1,0,1.52,0,1.15,0,1.28,0,1.28-.37V75.8h-3.79v9.75h-1.7V75.8h-3.63v7.68H175.6V74.16h5.29V71.5h-6.73V69.85h6.73V66.58h-3.58a19.94,19.94,0,0,1-1.17,3.22,10,10,0,0,0-1.47-.72,30.86,30.86,0,0,0,2-7.49l2.14.53c-.06.19-.22.29-.57.29-.13.8-.29,1.65-.5,2.5h3.15v-4l2.24.16c0,.18-.16.29-.54.34v3.51h5.47v1.67Zm10-2.31c0,.19-.16.32-.51.35V79h-1.71V64.14Zm3.42-2.87,2.24.14c0,.18-.16.32-.51.37V83.24c0,2.29-1.2,2.39-5.37,2.34a10.81,10.81,0,0,0-.61-1.75c1,0,1.9,0,2.59,0,1.42,0,1.66,0,1.66-.64Z"/><path class="cls-1" d="M206.83,71.53v8.68c2.08,3.16,5.9,3.16,10.7,3.16,2.88,0,6.27-.08,8.35-.21A6.62,6.62,0,0,0,225.3,85c-1.85.08-4.78.13-7.42.13-5.5,0-9.16,0-11.85-3.29-1.31,1.17-2.73,2.36-3.87,3.26a.37.37,0,0,1-.24.43l-1-2a45.91,45.91,0,0,0,4.21-3.24V73.23h-3.92v-1.7Zm-4-10a20.08,20.08,0,0,1,4.78,4.2L206.21,67a19.09,19.09,0,0,0-4.69-4.33Zm22.61,8.34v1.57H208.08V69.9H216V66.05h-3.9a16.42,16.42,0,0,1-1.81,3.16,14,14,0,0,0-1.49-.79A20.36,20.36,0,0,0,212,61.24l2.14.59c-.06.18-.24.26-.56.26-.22.77-.48,1.57-.78,2.37H216V60.9l2.32.13c0,.19-.18.32-.53.37v3.06h6.51v1.59h-6.51V69.9Zm-2.25,11.77h-1.76v-.9h-9v1h-1.7V73.46h12.43Zm-10.73-2.49h9V75h-9Z"/></g><g id="Layer_2-2" data-name="Layer 2"><path class="cls-2" d="M199.34,19.21h18.88v5h-6.59v16.9h-5.7V24.25h-6.59Z"/><path class="cls-2" d="M231.53,19.21h5.78V41.15h-5.78Z"/><path class="cls-2" d="M250.63,19.21h5.92c1.37,5.51,2.78,11,4.17,16.53h1.39c1.34-5.49,2.76-11,4.1-16.53h5.85c-.2.74-1.81,6.49-6.14,21.94h-9.15Q253.7,30.19,250.63,19.21Z"/><path class="cls-2" d="M187.42,21.91c-1.54-2.34-4.87-2.68-8.78-2.7-2.68,0-5.56,0-8.56,0V41.15h5.71V33.76c6.31.06,9.12.33,11.34-2.48A8,8,0,0,0,187.42,21.91Zm-6.07,6.81a32,32,0,0,1-5.56.14V24.18a36,36,0,0,1,5.56.15A2.17,2.17,0,0,1,183,26.45,2.07,2.07,0,0,1,181.35,28.72Z"/><path class="cls-2" d="M152.52,19.21h-8.63c-4.65,15.46-6,19.85-6.58,21.94h5.56c.51-1.87,1-3.83,1.53-5.7h7.47c1,3.84,1.3,4.83,1.53,5.7h5.71C156.94,33.86,154.69,26.5,152.52,19.21ZM145.72,31l1.76-6.36h1.31c1.23,4.44,1.27,4.6,1.76,6.36Z"/><path class="cls-3" d="M287.06,26.08a4.1,4.1,0,1,1-4.1,4.1A4.1,4.1,0,0,1,287.06,26.08Z"/><path class="cls-3" d="M122.24,26.08a4.1,4.1,0,1,1-4.1,4.1A4.1,4.1,0,0,1,122.24,26.08Z"/></g></g></svg>