<svg xmlns="http://www.w3.org/2000/svg" viewBox="0 0 299.87 300.19"><defs><style>.cls-1,.cls-2{fill:#fff;}.cls-2,.cls-3{fill-rule:evenodd;}.cls-3{fill:#ee4423;}</style></defs><title>aptiv-desktop-logo-de.svg_1</title><g id="Layer_2" data-name="Layer 2"><g id="Layer_1-2" data-name="Layer 1"><rect width="299.87" height="300.19"/><rect class="cls-1" x="46.19" y="232.69" width="207.5" height="2.08"/><polygon class="cls-1" points="189.63 115.63 253.73 82.77 253.73 75.31 189.63 107.82 189.63 115.63"/><polygon class="cls-1" points="189.63 102.31 253.73 69.46 253.73 62 189.63 94.51 189.63 102.31"/><polygon class="cls-1" points="189.63 88.81 253.73 55.95 253.73 48.5 189.63 81.01 189.63 88.81"/><polygon class="cls-1" points="189.63 75.31 253.73 42.46 253.73 35 189.63 67.51 189.63 75.31"/><polygon class="cls-1" points="189.63 21.69 189.63 62 253.73 29.15 253.73 21.69 189.63 21.69"/><polygon class="cls-1" points="253.73 184.49 253.73 169.43 224.03 184.49 253.73 184.49"/><polygon class="cls-1" points="212.56 184.49 253.73 163.39 253.73 155.93 197.42 184.49 212.56 184.49"/><polygon class="cls-1" points="189.63 121.14 125.54 88.64 125.54 96.09 189.63 128.95 189.63 129.12 253.73 96.27 253.73 88.81 189.63 121.32 189.63 121.14"/><path class="cls-1" d="M189.63,134.45,125.54,102v6.76L86,88.63v7.46l39.58,20.29V122L86,102v6.88L46.15,88.63v7.46L86,116.5v5.64L46.15,102v7.45h0v6h0v7.46h0v6h0v7.45h0v5.86h0v7.45h0v27h0v7.57H60.92l.07,0H75.85l-5.42-2.74v-5.91l16.89,8.65h28.34l-5.42-2.74v-5.91l16.89,8.65h28.11l-5.19-2.63v-5.9l16.66,8.53h15.14l-31.8-16.12v-5.91l39.58,20.29v.18l64.1-32.86v-7.46l-64.1,32.51v-.17l-39.58-20.08V149l39.58,20.29v.17l64.1-32.85v-7.46l-64.1,32.51v-.18l-39.58-20.07v-5.92l39.58,20.29v.18l64.1-32.86v-7.45l-64.1,32.51V148l-39.58-20.07V122l39.58,20.29v.17l64.1-32.85v-7.46l-64.1,32.51Zm-64.09-4.76v5.83l-15.3-7.76v-5.91Zm-15.3,19.16,15.3,7.84v5.64l-15.3-7.76Zm15.3-5.66V149l-15.3-7.76v-5.91ZM70.43,121.85l15.53,8v5.82l-15.53-7.87Zm0,13.5,15.53,8v5.83l-15.53-7.88Zm0,13.5,15.53,8v5.64l-15.53-7.88Zm0,19.22v-5.91l15.53,8V176Zm39.81,0v-5.91l15.3,7.84v5.83Z"/><path class="cls-1" d="M80,244.17v24.71H77.58V244.17Z"/><path class="cls-1" d="M87,251v3.08h.07a5.26,5.26,0,0,1,2.23-2.61,6.56,6.56,0,0,1,3.51-1A8.76,8.76,0,0,1,96,251a4.92,4.92,0,0,1,2,1.36,5,5,0,0,1,1.07,2.17,12,12,0,0,1,.32,2.87v11.49H97.24V257.74a10.26,10.26,0,0,0-.21-2.13,4.53,4.53,0,0,0-.73-1.72,3.63,3.63,0,0,0-1.41-1.14,5.16,5.16,0,0,0-2.21-.41,5.63,5.63,0,0,0-2.35.46,5.18,5.18,0,0,0-1.74,1.28A6,6,0,0,0,87.48,256a8,8,0,0,0-.44,2.44v10.42H84.85V251Z"/><path class="cls-1" d="M110.87,251v1.84h-3.65v12a4,4,0,0,0,.29,1.68c.2.41.69.63,1.48.68a16.79,16.79,0,0,0,1.88-.11V269c-.32,0-.65,0-1,0s-.65,0-1,0a4.32,4.32,0,0,1-3.06-.85,4.23,4.23,0,0,1-.83-3.13V252.86H101.9V251H105v-5.37h2.19V251Z"/><path class="cls-1" d="M115.83,263a6.67,6.67,0,0,0,1.06,2.27,6.12,6.12,0,0,0,1.84,1.66,5.2,5.2,0,0,0,2.68.66,5.37,5.37,0,0,0,3.76-1.25,6.6,6.6,0,0,0,1.88-3.32h2.19a8.76,8.76,0,0,1-2.56,4.71,7.64,7.64,0,0,1-5.27,1.66,8.35,8.35,0,0,1-3.67-.75,6.66,6.66,0,0,1-2.52-2,8.76,8.76,0,0,1-1.44-3,13.35,13.35,0,0,1-.47-3.62,12.66,12.66,0,0,1,.47-3.46,9.22,9.22,0,0,1,1.44-3,7.33,7.33,0,0,1,2.52-2.15,7.82,7.82,0,0,1,3.67-.81,7.15,7.15,0,0,1,6.18,3.13,9.62,9.62,0,0,1,1.37,3.22,14.31,14.31,0,0,1,.35,3.69H115.5A9.6,9.6,0,0,0,115.83,263Zm10.85-6.66a6.4,6.4,0,0,0-1.13-2,5.69,5.69,0,0,0-1.77-1.42,5.23,5.23,0,0,0-2.37-.53,5.3,5.3,0,0,0-2.4.53,5.58,5.58,0,0,0-1.77,1.42,7.06,7.06,0,0,0-1.17,2,10,10,0,0,0-.57,2.38h11.62A7.9,7.9,0,0,0,126.68,256.32Z"/><path class="cls-1" d="M134.67,244.17v24.71h-2.2V244.17Z"/><path class="cls-1" d="M141.27,244.17v24.71h-2.19V244.17Z"/><path class="cls-1" d="M147.88,244.17v3.49h-2.19v-3.49Zm0,6.85v17.86h-2.19V251Z"/><path class="cls-1" d="M167,271a7,7,0,0,1-1.37,2.7,6.08,6.08,0,0,1-2.46,1.69,10.29,10.29,0,0,1-3.7.59,11.11,11.11,0,0,1-2.65-.31,7.58,7.58,0,0,1-2.31-1,5.79,5.79,0,0,1-1.7-1.68,4.9,4.9,0,0,1-.79-2.44h2.2a3.86,3.86,0,0,0,.67,1.68,4.22,4.22,0,0,0,1.22,1.09,5.47,5.47,0,0,0,1.58.61,8.74,8.74,0,0,0,1.78.19,5.27,5.27,0,0,0,4.42-1.74,7.94,7.94,0,0,0,1.35-5V265h-.07a6.38,6.38,0,0,1-2.24,2.66,6,6,0,0,1-3.46,1,8.77,8.77,0,0,1-3.69-.71,6.92,6.92,0,0,1-2.52-2,8.17,8.17,0,0,1-1.45-2.92,13.85,13.85,0,0,1-.45-3.59,11.12,11.12,0,0,1,.54-3.48,8.59,8.59,0,0,1,1.57-2.87,7.21,7.21,0,0,1,2.54-1.94,8.1,8.1,0,0,1,3.46-.71,6.13,6.13,0,0,1,1.89.28,5.65,5.65,0,0,1,1.62.78,6.89,6.89,0,0,1,1.31,1.16,5.28,5.28,0,0,1,.88,1.38h.07V251h2.2v16.41A13.58,13.58,0,0,1,167,271Zm-5-4.76a5.68,5.68,0,0,0,1.81-1.6,7,7,0,0,0,1.1-2.26,9.78,9.78,0,0,0,.36-2.64,11.31,11.31,0,0,0-.31-2.63,7.59,7.59,0,0,0-1-2.39,5.48,5.48,0,0,0-1.79-1.73,5.16,5.16,0,0,0-2.66-.65,5.24,5.24,0,0,0-2.68.64,5.56,5.56,0,0,0-1.84,1.67,6.85,6.85,0,0,0-1.06,2.38,10.76,10.76,0,0,0-.34,2.71,10.18,10.18,0,0,0,.35,2.64,6.58,6.58,0,0,0,1.08,2.26,5.69,5.69,0,0,0,1.84,1.6,5.54,5.54,0,0,0,2.65.6A5.05,5.05,0,0,0,162,266.24Z"/><path class="cls-1" d="M173.4,263a6.86,6.86,0,0,0,1.06,2.27,6,6,0,0,0,1.85,1.66,5.13,5.13,0,0,0,2.67.66,5.35,5.35,0,0,0,3.76-1.25,6.53,6.53,0,0,0,1.88-3.32h2.19a8.7,8.7,0,0,1-2.56,4.71,7.62,7.62,0,0,1-5.27,1.66,8.38,8.38,0,0,1-3.67-.75,6.66,6.66,0,0,1-2.52-2,8.76,8.76,0,0,1-1.44-3,13.35,13.35,0,0,1-.47-3.62,12.66,12.66,0,0,1,.47-3.46,9.22,9.22,0,0,1,1.44-3,7.33,7.33,0,0,1,2.52-2.15,7.85,7.85,0,0,1,3.67-.81,7.15,7.15,0,0,1,6.18,3.13,9.42,9.42,0,0,1,1.37,3.22,13.88,13.88,0,0,1,.35,3.69H173.07A9.6,9.6,0,0,0,173.4,263Zm10.85-6.66a6.4,6.4,0,0,0-1.13-2,5.47,5.47,0,0,0-1.77-1.42,5.23,5.23,0,0,0-2.37-.53,5.3,5.3,0,0,0-2.4.53,5.69,5.69,0,0,0-1.77,1.42,7.06,7.06,0,0,0-1.17,2,10,10,0,0,0-.57,2.38h11.62A7.61,7.61,0,0,0,184.25,256.32Z"/><path class="cls-1" d="M192.17,251v3.08h.07a5.29,5.29,0,0,1,2.22-2.61,6.57,6.57,0,0,1,3.52-1,8.76,8.76,0,0,1,3.15.49,5,5,0,0,1,2,1.36,5.1,5.1,0,0,1,1.08,2.17,12,12,0,0,1,.31,2.87v11.49h-2.19V257.74a10.26,10.26,0,0,0-.21-2.13,4.53,4.53,0,0,0-.73-1.72,3.63,3.63,0,0,0-1.41-1.14,5.13,5.13,0,0,0-2.21-.41,5.59,5.59,0,0,0-2.34.46,5,5,0,0,0-1.74,1.28A6,6,0,0,0,192.6,256a8,8,0,0,0-.43,2.44v10.42H190V251Z"/><path class="cls-1" d="M222.29,267.05v1.83h-15v-1.76L219,252.86H208.1V251h13.71v1.56l-11.87,14.47Z"/></g><g id="Layer_2-2" data-name="Layer 2"><path class="cls-2" d="M142.9,193.53h25v6.7h-8.74v22.43h-7.57V200.23H142.9Z"/><path class="cls-2" d="M185.62,193.53h7.67v29.13h-7.67Z"/><path class="cls-2" d="M211,193.53h7.86c1.82,7.31,3.7,14.65,5.54,21.94h1.84c1.78-7.28,3.66-14.66,5.44-21.94h7.77c-.26,1-2.41,8.62-8.16,29.13H219.12Q215.06,208.09,211,193.53Z"/><path class="cls-2" d="M127.07,197.12c-2-3.11-6.47-3.57-11.65-3.59-3.56,0-7.39,0-11.36,0v29.13h7.57v-9.81c8.38.08,12.11.44,15.05-3.3A10.66,10.66,0,0,0,127.07,197.12Zm-8.06,9a43.42,43.42,0,0,1-7.38.2v-6.22c2.32,0,5.83-.17,7.38.19a2.88,2.88,0,0,1,2.14,2.82C121.15,204.68,120.42,205.92,119,206.15Z"/><path class="cls-2" d="M80.75,193.53H69.29c-6.18,20.53-7.91,26.35-8.74,29.13h7.38c.68-2.49,1.36-5.08,2-7.58h9.91c1.38,5.11,1.73,6.41,2,7.58h7.57C86.61,213,83.63,203.2,80.75,193.53Zm-9,15.63c.78-2.81,1.55-5.63,2.33-8.45H75.8c1.62,5.89,1.68,6.11,2.33,8.45Z"/><path class="cls-3" d="M259.33,202.66a5.44,5.44,0,1,1-5.44,5.43A5.43,5.43,0,0,1,259.33,202.66Z"/><path class="cls-3" d="M40.55,202.66a5.44,5.44,0,1,1-5.44,5.43A5.44,5.44,0,0,1,40.55,202.66Z"/></g></g></svg>