<?xml version="1.0" standalone="no"?>
<!DOCTYPE svg PUBLIC "-//W3C//DTD SVG 20010904//EN"
 "http://www.w3.org/TR/2001/REC-SVG-20010904/DTD/svg10.dtd">
<svg version="1.0" xmlns="http://www.w3.org/2000/svg"
 width="208.000000pt" height="208.000000pt" viewBox="0 0 208.000000 208.000000"
 preserveAspectRatio="xMidYMid meet">
<metadata>
Created by potrace 1.11, written by Peter Selinger 2001-2013
</metadata>
<g transform="translate(0.000000,208.000000) scale(0.100000,-0.100000)"
fill="#000000" stroke="none">
<path d="M1439 1843 c-3 -28 0 -385 3 -389 3 -2 43 16 89 39 46 24 189 97 317
163 l232 119 0 37 0 38 -320 0 c-176 0 -320 -3 -321 -7z"/>
<path d="M1988 1672 c-38 -20 -176 -91 -307 -157 -217 -108 -240 -122 -243
-147 -3 -15 -1 -33 3 -39 4 -7 111 42 320 149 l314 161 3 35 c4 45 -4 45 -90
-2z"/>
<path d="M1770 1426 c-163 -83 -304 -156 -314 -162 -16 -10 -22 -38 -17 -77 1
-5 145 65 321 155 l320 163 0 38 c0 20 -3 36 -7 36 -5 -1 -141 -70 -303 -153z"/>
<path d="M1810 1310 c-385 -194 -363 -182 -371 -211 -15 -57 3 -55 157 24 508
259 479 242 482 281 2 20 0 36 -5 36 -4 0 -123 -59 -263 -130z"/>
<path d="M1755 1150 c-321 -164 -330 -171 -317 -222 4 -15 50 6 281 124 152
78 295 151 318 163 39 18 43 23 43 58 0 20 -3 37 -7 36 -5 0 -147 -72 -318
-159z"/>
<path d="M0 1143 l0 -38 198 -102 c172 -89 197 -105 200 -127 2 -14 1 -26 -3
-26 -3 0 -94 44 -201 98 l-194 99 0 -413 0 -413 148 0 c112 0 142 3 127 11
-28 15 -27 15 -30 43 -2 14 1 25 6 25 5 0 45 -18 89 -40 l80 -40 137 0 c123 1
135 2 113 14 -25 14 -39 66 -18 66 6 0 43 -18 83 -40 l72 -40 139 1 c129 0
137 1 117 16 -20 13 -33 63 -18 63 3 0 42 -18 86 -40 74 -38 85 -41 151 -38
l71 3 -156 80 c-144 74 -157 82 -157 107 0 22 4 26 18 21 9 -3 22 -9 27 -13 6
-4 87 -47 182 -95 l172 -87 138 70 c76 39 220 113 320 164 l183 93 0 38 c0 37
-7 45 -26 28 -5 -5 -145 -77 -312 -161 l-303 -152 -197 100 c-174 88 -197 103
-200 126 -2 14 0 26 3 26 4 0 94 -45 200 -100 l194 -99 198 101 c470 241 438
221 441 262 2 20 0 36 -3 36 -4 0 -148 -72 -321 -160 l-314 -160 -200 102
c-191 97 -200 103 -200 130 l0 29 200 -102 199 -102 193 98 c106 54 250 128
320 164 l128 66 0 38 0 38 -320 -163 -321 -162 -197 99 c-178 91 -197 103
-200 128 -2 15 0 27 4 27 3 0 93 -45 200 -99 l193 -100 198 101 c466 238 438
221 441 262 2 20 0 36 -4 36 -3 0 -148 -72 -320 -160 l-314 -160 -314 160
c-173 88 -319 160 -325 160 -5 0 -8 -11 -5 -25 3 -17 0 -25 -10 -25 -7 0 -97
43 -200 95 l-186 96 0 -39 0 -39 193 -98 c105 -54 195 -102 198 -108 9 -13 4
-42 -7 -42 -5 0 -91 42 -191 93 -101 50 -185 92 -187 92 -3 0 -6 -13 -8 -30
l-3 -29 -197 100 -198 100 0 -38z m333 -342 c59 -30 67 -38 67 -63 l0 -28 -79
39 c-66 34 -78 43 -76 63 1 13 3 25 4 26 1 5 5 3 84 -37z m385 7 c37 -18 68
-33 70 -34 7 -3 6 -49 -1 -52 -4 -1 -39 14 -77 33 -58 29 -70 39 -70 60 0 14
3 25 6 25 3 0 36 -15 72 -32z m-397 -137 c59 -32 75 -45 77 -65 2 -14 1 -26
-2 -26 -3 0 -39 16 -80 37 -66 33 -73 39 -72 65 0 15 1 28 2 28 1 0 35 -18 75
-39z m465 -33 c5 -6 13 -58 9 -58 -3 0 -38 17 -80 37 -66 33 -75 41 -75 65 l0
27 71 -34 c39 -19 73 -35 75 -37z m-453 -108 c53 -27 67 -39 67 -57 0 -30 -8
-29 -83 8 -76 38 -78 42 -68 87 1 4 -1 5 84 -38z m392 2 c53 -28 70 -42 71
-59 2 -30 -4 -29 -84 11 -55 28 -68 39 -70 60 -1 14 2 26 6 26 4 -1 39 -18 77
-38z m-400 -130 c58 -30 71 -42 73 -64 2 -16 0 -28 -5 -27 -4 0 -39 17 -78 37
-59 31 -69 41 -71 65 0 15 2 27 5 27 3 0 38 -17 76 -38z m424 -14 c34 -19 45
-31 46 -52 0 -14 -1 -26 -2 -26 -2 0 -36 17 -77 38 -66 33 -74 40 -74 64 1 26
2 27 32 14 17 -7 51 -24 75 -38z"/>
<path d="M795 1142 c1 -42 -35 -20 352 -218 l293 -149 162 83 c90 46 234 119
321 164 l157 80 0 38 0 38 -320 -162 -320 -161 -296 150 c-390 197 -351 181
-349 137z"/>
<path d="M2065 502 c-5 -5 -129 -70 -275 -143 l-265 -134 71 -3 72 -3 198 102
c110 56 203 105 207 109 5 4 7 24 5 44 -2 25 -6 34 -13 28z"/>
<path d="M1930 295 l-145 -74 148 0 147 -1 0 75 c0 41 -1 75 -2 74 -2 0 -68
-33 -148 -74z"/>
</g>
</svg>
